<svg width="117" height="41" viewBox="0 0 117 41" fill="none" xmlns="http://www.w3.org/2000/svg"><path d="M39.3539 19.332C39.3539 26.38 35.5812 32.5448 29.947 35.9237C29.7314 36.0522 29.4557 36.0108 29.2836 35.8283L22.7975 28.9234C22.53 28.6394 22.6461 28.1751 23.0151 28.0487C26.6365 26.807 29.2401 23.3742 29.2401 19.332C29.2401 14.1912 25.03 10.0349 19.8705 10.1199C14.8188 10.2049 10.8159 14.4316 10.8159 19.4833V35.3993C10.8159 35.8201 10.3558 36.075 9.99507 35.8553C4.4873 32.5034 0.787132 26.4753 0.702142 19.5766C0.569475 8.96531 9.14309 0.151233 19.7544 0.00405532C30.5564 -0.145195 39.3581 8.56523 39.3581 19.332H39.3539ZM115.828 23.2167H113.268C113.165 23.2167 113.073 23.2809 113.036 23.3763L109.819 31.838L106.477 23.3742C106.44 23.2789 106.349 23.2167 106.247 23.2167H103.559C103.38 23.2167 103.26 23.3991 103.331 23.5629L108.335 35.3723L108.036 36.1331C107.605 37.2027 107.018 37.6401 106.009 37.6401C105.739 37.6401 105.515 37.5945 105.354 37.5468C105.2 37.5012 105.047 37.6152 105.047 37.7748V39.9037C105.047 40.0094 105.115 40.1048 105.215 40.138C105.447 40.2188 105.907 40.3432 106.527 40.3432C108.366 40.3432 109.589 39.2051 110.752 36.415L116.058 23.5629C116.127 23.3991 116.007 23.2187 115.828 23.2187V23.2167ZM61.8576 19.4439H59.4696C59.3763 19.4439 59.2892 19.4978 59.2478 19.5808L53.201 31.6037L47.1543 19.5808C47.1129 19.4978 47.0258 19.4439 46.9325 19.4439H44.3911C44.2543 19.4439 44.1424 19.5559 44.1424 19.6927V35.507C44.1424 35.6439 44.2543 35.7558 44.3911 35.7558H46.9429C47.0797 35.7558 47.1916 35.6439 47.1916 35.507V25.7353L52.1667 35.5941C52.2081 35.677 52.2952 35.7309 52.3885 35.7309H53.7898C53.883 35.7309 53.9701 35.6791 54.0116 35.5941L59.0591 25.6192V35.505C59.0591 35.6418 59.1711 35.7537 59.3079 35.7537H61.8597C61.9965 35.7537 62.1084 35.6418 62.1084 35.505V19.6906C62.1084 19.5538 61.9965 19.4419 61.8597 19.4419L61.8576 19.4439ZM76.3411 29.4935C76.3411 33.0797 73.4328 35.988 69.8466 35.988C66.2605 35.988 63.3522 33.0797 63.3522 29.4935C63.3522 25.9073 66.2605 22.999 69.8466 22.999C73.4328 22.999 76.3411 25.9073 76.3411 29.4935ZM73.495 29.4935C73.495 27.4786 71.8615 25.8451 69.8466 25.8451C67.8318 25.8451 66.1983 27.4786 66.1983 29.4935C66.1983 31.5084 67.8318 33.1418 69.8466 33.1418C71.8615 33.1418 73.495 31.5084 73.495 29.4935ZM84.0628 23.0011C82.1868 23.0011 80.8808 24.0811 80.4123 24.6802H80.3232V23.4675C80.3232 23.3307 80.2113 23.2187 80.0745 23.2187H77.8461C77.7092 23.2187 77.5973 23.3307 77.5973 23.4675V35.505C77.5973 35.6418 77.7092 35.7537 77.8461 35.7537H80.3626C80.4994 35.7537 80.6113 35.6418 80.6113 35.505V28.7369C80.6113 26.9376 81.7805 25.6793 83.501 25.6793C85.2215 25.6793 86.343 26.9376 86.343 28.7369V35.505C86.343 35.6418 86.4549 35.7537 86.5917 35.7537H89.1041C89.2409 35.7537 89.3529 35.6418 89.3529 35.505V28.5399C89.3529 25.2274 87.2281 23.0011 84.0669 23.0011H84.0628ZM102.746 26.0649C102.98 26.4587 103.805 27.9512 103.567 29.8563C103.532 30.134 103.48 30.3745 103.43 30.5693C103.401 30.6792 103.304 30.7538 103.19 30.7538H93.7081C93.8718 31.3736 94.5766 33.4113 97.2155 33.4113C98.4862 33.4113 99.4542 32.8682 99.902 32.3603C99.958 32.2982 100.037 32.2608 100.12 32.2608H102.721C102.908 32.2608 103.03 32.4578 102.943 32.6236C102.375 33.7077 101.326 34.7877 99.8481 35.449C99.0479 35.8076 98.1711 35.99 97.2403 35.99C96.0298 35.99 94.9042 35.6998 93.8967 35.1318C92.1762 34.1617 90.6008 32.2546 90.6008 29.4935C90.6049 28.9649 90.6795 27.2755 91.859 25.6772C92.0187 25.4616 92.7048 24.5641 93.9195 23.8696C94.929 23.2934 96.036 22.999 97.2113 22.999C99.788 22.999 101.741 24.3879 102.742 26.0649H102.746ZM100.617 28.4197C100.516 27.9284 99.8004 25.5549 97.2175 25.5549C95.4079 25.5549 94.0418 26.7406 93.6583 28.4197H100.617ZM83.1527 11.828C83.1963 11.6705 83.0761 11.5129 82.9123 11.5129H80.4331C80.3232 11.5129 80.2237 11.5751 80.174 11.6725C79.579 12.879 78.3373 13.7102 76.9008 13.7102C74.8859 13.7102 73.2525 12.0768 73.2525 10.0619C73.2525 8.04701 74.8859 6.41354 76.9008 6.41354C78.3726 6.41354 79.6412 7.28624 80.2175 8.54036C80.2652 8.64193 80.3667 8.70827 80.4787 8.70827H82.9351C83.0968 8.70827 83.2149 8.55487 83.1755 8.39733C83.1527 8.30612 83.1341 8.23565 83.1341 8.23565C82.3464 5.53877 79.8547 3.56741 76.9008 3.56741C73.2815 3.56741 70.3545 6.52755 70.4063 10.1593C70.4582 13.6916 73.468 16.6082 76.9982 16.5564C79.9294 16.5128 82.3878 14.527 83.1486 11.828H83.1527ZM62.8402 16.5564C59.368 16.4921 56.5343 13.6584 56.4701 10.1863C56.4016 6.5006 59.4032 3.50108 63.0868 3.56949C66.559 3.63375 69.3927 6.46743 69.4569 9.93958C69.5253 13.6252 66.5237 16.6248 62.8402 16.5564ZM66.6108 10.1821C66.6771 8.07187 64.9545 6.34928 62.8443 6.41561C60.9331 6.47573 59.3784 8.0325 59.3162 9.94373C59.2498 12.054 60.9724 13.7766 63.0827 13.7102C64.9939 13.6501 66.5486 12.0933 66.6108 10.1821ZM44.1403 16.0734V0.250734C44.1403 0.113921 44.2522 0.00198037 44.389 0.00198037H51.3002C53.0166 -0.00631133 56.2068 1.2022 56.2068 5.03919C56.2068 7.6946 54.4987 9.81936 51.2421 10.0619L56.7333 15.9034C56.8826 16.063 56.7706 16.3221 56.553 16.3221H53.3462C53.2653 16.3221 53.1865 16.2869 53.1326 16.2288L47.486 10.064H47.3305V16.0754C47.3305 16.2122 47.2186 16.3242 47.0818 16.3242H44.387C44.2502 16.3242 44.1382 16.2122 44.1382 16.0754L44.1403 16.0734ZM47.3305 7.53292H50.0917C51.1053 7.53292 51.8702 7.31733 52.3864 6.89238C52.9005 6.46536 53.1575 5.87666 53.1575 5.12626C53.1575 4.37586 52.9233 3.83689 52.4569 3.42438C51.9884 3.01394 51.3105 2.80458 50.4213 2.80458H47.3305V7.53292ZM107.626 6.24978H109.346V12.0623C109.346 15.9117 112.609 16.5584 113.867 16.5584C114.458 16.5584 114.908 16.4361 115.283 16.3532C115.397 16.3283 115.478 16.2268 115.478 16.1107V14.0854C115.478 13.9258 115.331 13.8077 115.175 13.8429C114.346 14.0357 112.528 14.0378 112.528 11.8322V6.24978H115.231C115.368 6.24978 115.48 6.13784 115.48 6.00103V4.03382C115.48 3.89701 115.368 3.78507 115.231 3.78507H112.528V0.248659C112.528 0.053804 112.315 -0.0643568 112.149 0.0372166L109.469 1.70799C109.396 1.7536 109.352 1.83237 109.352 1.91944V3.78507H107.628C107.491 3.78507 107.379 3.89701 107.379 4.03382V6.00103C107.379 6.13784 107.491 6.24978 107.628 6.24978H107.626ZM84.4463 16.3221H87.1265C87.2634 16.3221 87.3753 16.2102 87.3753 16.0734V11.3202H87.5225L92.0021 16.2682C92.0332 16.3035 92.0788 16.3221 92.1244 16.3221H95.4411C95.6587 16.3221 95.7706 16.063 95.6235 15.9034L90.1655 10.064L95.1239 4.1955C95.2607 4.03382 95.1446 3.78714 94.9332 3.78714H91.8342C91.7492 3.78714 91.6663 3.82446 91.6124 3.89079L87.5536 8.74144H87.3732V0.250734C87.3732 0.055879 87.1576 -0.0643548 86.9939 0.0392915L84.3136 1.71422C84.241 1.75982 84.1975 1.8386 84.1975 1.92566V16.0754C84.1975 16.2122 84.3094 16.3242 84.4463 16.3242V16.3221ZM94.3403 10.0619C94.3445 9.5333 94.4191 7.84386 95.5986 6.24563C95.7582 6.03005 96.4443 5.13248 97.6591 4.43805C98.6686 3.86177 99.7755 3.56741 100.951 3.56741C103.528 3.56741 105.48 4.95627 106.481 6.63327C106.716 7.02712 107.541 8.51964 107.302 10.4247C107.267 10.7024 107.215 10.9429 107.166 11.1377C107.136 11.2476 107.039 11.3222 106.925 11.3222H97.4435C97.6073 11.942 98.312 13.9797 100.951 13.9797C102.222 13.9797 103.19 13.4366 103.637 12.9287C103.693 12.8666 103.772 12.8292 103.855 12.8292H106.457C106.643 12.8292 106.765 13.0262 106.678 13.192C106.11 14.2761 105.061 15.3561 103.584 16.0174C102.783 16.376 101.907 16.5584 100.976 16.5584C99.7652 16.5584 98.6396 16.2682 97.6321 15.7002C95.9116 14.7301 94.3362 12.823 94.3362 10.0619H94.3403ZM97.3958 8.98812H104.355C104.253 8.49683 103.538 6.12333 100.955 6.12333C99.1454 6.12333 97.7793 7.30905 97.3958 8.98812Z" fill="#DE3341"></path></svg>