<svg xmlns="http://www.w3.org/2000/svg" xml:space="preserve" viewBox="0 0 952.14 221.9"><style>.st0{fill:#004250}.st1{fill:#0dbebb}</style><g id="Layer_1"><path d="M85.27 79.67c-1.04-6.48-2.59-18.65-17.63-18.65-8.55 0-16.85 5.96-16.85 15.02 0 11.4 5.18 13.73 39.66 29.27 35.78 16.06 44.85 32.64 44.85 54.91 0 27.97-16.07 58.8-66.88 58.8-55.48 0-69.22-36.26-69.22-60.87v-6.22h48.74c0 22.28 13.74 26.16 19.96 26.16 11.67 0 18.67-9.58 18.67-18.39 0-12.69-8.04-15.8-37.59-28.23-13.48-5.44-46.92-18.91-46.92-54.91s35-56.47 67.14-56.47c18.92 0 39.4 6.99 51.85 21.76 11.41 13.99 12.18 26.94 12.7 37.82zM371 26.6h47.66v146.77h55.22v42.45H371zM492.55 26.6h47.66v189.21h-47.66zM567.65 26.6h41.1l72.12 118.9.5-.51-2.01-118.39H725v189.21h-41.36l-71.11-115.06-.5.26 1.26 114.81h-45.64zM752.75 26.6h47.66v85.15h.51l52.7-85.15h49.93l-61.78 94.35 65.81 94.86h-55.73l-50.94-81.82h-.51v81.82h-47.66V26.6zM281 161.06l33.54 33.54c-16.97 14.44-38.91 23.12-62.94 23.12-14.87 0-29.01-3.36-41.61-9.34 1.22-3.66 1.88-7.59 1.88-11.65 0-20.07-16.27-36.34-36.34-36.34-4.1 0-8.03.7-11.73 1.92-6.06-12.69-9.42-26.87-9.42-41.83 0-23.99 8.68-46.02 23.12-62.94l33.5 33.5c-5.98 8.24-9.51 18.41-9.51 29.44 0 27.66 22.42 50.12 50.12 50.12 10.98.02 21.15-3.52 29.39-9.54" class="st0"/><circle cx="175.52" cy="196.82" r="24.85" class="st1"/><path d="m280.56 161.27 33.43 33.43c-16.91 14.39-38.78 23.04-62.73 23.04-14.82 0-28.91-3.35-41.47-9.3 1.22-3.65 1.87-7.56 1.87-11.61 0-20-16.21-36.21-36.21-36.21-4.09 0-8 .7-11.69 1.91-6.04-12.65-9.39-26.78-9.39-41.69 0-23.91 8.65-45.86 23.04-62.73L210.8 91.5c-5.96 8.22-9.48 18.34-9.48 29.34 0 27.56 22.34 49.95 49.95 49.95 10.94 0 21.07-3.52 29.29-9.52" class="st0"/><circle cx="175.44" cy="196.91" r="24.77" class="st1"/><path d="m221.82 80.39-33.43-33.43c16.91-14.39 38.78-23.04 62.73-23.04 14.82 0 28.91 3.35 41.47 9.3a36.6 36.6 0 0 0-1.87 11.61c0 20 16.21 36.21 36.21 36.21 4.09 0 8-.7 11.69-1.91 6.04 12.65 9.39 26.78 9.39 41.69 0 23.91-8.65 45.86-23.04 62.73l-33.39-33.39c5.96-8.22 9.48-18.34 9.48-29.34 0-27.56-22.34-49.95-49.95-49.95-10.94 0-21.07 3.52-29.29 9.52" class="st0"/><circle cx="326.94" cy="44.76" r="24.77" class="st1"/><circle cx="251.12" cy="120.84" r="34.91" class="st1"/><path d="M941.6 13.45c0 4.8-3.69 5.9-3.69 5.9l4.61 8.6h-3.85l-3.83-7.58h-4.18v7.58h-3.28V7.82h7.29c1.04 0 2.07.16 3.05.5 1.76.63 3.88 2.03 3.88 5.13m-10.94 4.01h2.24c.64 0 1.27-.04 1.9-.13s1.19-.24 1.68-.47a2.9 2.9 0 0 0 1.18-.98c.3-.43.45-.98.45-1.66s-.15-1.75-.45-2.18a2.9 2.9 0 0 0-1.18-.98c-.49-.23-1.05-.38-1.68-.47s-1.26-.13-1.9-.13h-2.24z" class="st0"/><path d="M934.11.15c-9.77 0-17.69 7.92-17.69 17.69s7.92 17.69 17.69 17.69 17.69-7.92 17.69-17.69S943.87.15 934.11.15m0 32.45c-8.15 0-14.76-6.61-14.76-14.76s6.61-14.76 14.76-14.76 14.76 6.61 14.76 14.76-6.61 14.76-14.76 14.76" class="st0"/></g></svg>