<svg width="636" height="441" viewBox="0 0 636 441" fill="none" xmlns="http://www.w3.org/2000/svg">
<rect x="233.746" y="0.327835" width="198.668" height="224.895" rx="7.54021" fill="white"/>
<rect x="233.746" y="0.327835" width="198.668" height="224.895" rx="7.54021" stroke="#CBE2DB" stroke-width="0.65567"/>
<rect x="249.482" y="16.0642" width="167.196" height="108.186" rx="7.54021" fill="#F2F8F6"/>
<rect x="249.482" y="16.0642" width="167.196" height="108.186" rx="7.54021" stroke="#CBE2DB" stroke-width="0.65567"/>
<rect x="249.154" y="140.313" width="51.7979" height="10.4907" rx="2.62268" fill="#D8E9E4"/>
<rect x="249.154" y="156.05" width="156.049" height="5.24536" rx="1.31134" fill="#E5F0ED"/>
<rect x="249.154" y="166.54" width="117.365" height="5.24536" rx="1.31134" fill="#E5F0ED"/>
<rect x="249.482" y="187.849" width="43.9299" height="21.6371" rx="10.8186" fill="#F2F8F6"/>
<rect x="249.482" y="187.849" width="43.9299" height="21.6371" rx="10.8186" stroke="#CBE2DB" stroke-width="0.65567"/>
<rect x="443.561" y="0.327835" width="192.111" height="224.895" rx="7.54021" fill="white"/>
<rect x="443.561" y="0.327835" width="192.111" height="224.895" rx="7.54021" stroke="#CBE2DB" stroke-width="0.65567"/>
<rect x="458.969" y="15.7363" width="51.7979" height="10.4907" rx="2.62268" fill="#D8E9E4"/>
<rect x="458.969" y="31.4727" width="29.5052" height="5.24536" rx="1.31134" fill="#E5F0ED"/>
<rect x="458.969" y="139.658" width="55.0763" height="5.24536" rx="1.31134" fill="#E5F0ED"/>
<rect x="590.759" y="139.658" width="29.5052" height="5.24536" rx="1.31134" fill="#D8E9E4"/>
<rect x="458.969" y="152.771" width="161.295" height="0.65567" fill="#D8E9E4"/>
<rect x="458.969" y="161.296" width="33.4392" height="5.24536" rx="1.31134" fill="#E5F0ED"/>
<rect x="590.759" y="161.296" width="29.5052" height="5.24536" rx="1.31134" fill="#D8E9E4"/>
<rect x="458.969" y="174.408" width="161.295" height="0.65567" fill="#D8E9E4"/>
<rect x="458.969" y="182.933" width="87.8598" height="5.24536" rx="1.31134" fill="#E5F0ED"/>
<rect x="590.759" y="182.933" width="29.5052" height="5.24536" rx="1.31134" fill="#D8E9E4"/>
<rect x="458.969" y="196.046" width="161.295" height="0.65567" fill="#D8E9E4"/>
<rect x="458.969" y="204.569" width="43.9299" height="5.24536" rx="1.31134" fill="#E5F0ED"/>
<rect x="590.759" y="204.569" width="29.5052" height="5.24536" rx="1.31134" fill="#D8E9E4"/>
<rect x="0.327835" y="0.327835" width="222.272" height="224.895" rx="7.54021" fill="white"/>
<rect x="0.327835" y="0.327835" width="222.272" height="224.895" rx="7.54021" stroke="#CBE2DB" stroke-width="0.65567"/>
<mask id="path-22-inside-1_0_1" fill="white">
<path d="M15.7358 36.596C15.7358 35.214 16.8561 34.0938 18.2381 34.0938H38.2561C39.6381 34.0938 40.7583 35.214 40.7583 36.596V64.2546H15.7358V36.596Z"/>
</mask>
<path d="M15.7358 36.596C15.7358 35.214 16.8561 34.0938 18.2381 34.0938H38.2561C39.6381 34.0938 40.7583 35.214 40.7583 36.596V64.2546H15.7358V36.596Z" fill="#F2F8F6"/>
<path d="M15.0802 36.596C15.0802 34.8519 16.494 33.4381 18.2381 33.4381H38.2561C40.0002 33.4381 41.414 34.8519 41.414 36.596H40.1027C40.1027 35.5762 39.2759 34.7494 38.2561 34.7494H18.2381C17.2183 34.7494 16.3915 35.5762 16.3915 36.596H15.0802ZM40.7583 64.2546H15.7358H40.7583ZM15.0802 64.2546V36.596C15.0802 34.8519 16.494 33.4381 18.2381 33.4381V34.7494C17.2183 34.7494 16.3915 35.5762 16.3915 36.596V64.2546H15.0802ZM38.2561 33.4381C40.0002 33.4381 41.414 34.8519 41.414 36.596V64.2546H40.1027V36.596C40.1027 35.5762 39.2759 34.7494 38.2561 34.7494V33.4381Z" fill="#CBE2DB" mask="url(#path-22-inside-1_0_1)"/>
<path d="M40.4302 64.583V71.4668C40.4302 72.7342 39.4027 73.7617 38.1353 73.7617H18.3589C17.0915 73.7617 16.064 72.7342 16.064 71.4668V64.583H40.4302Z" fill="#F2F8F6"/>
<path d="M40.4302 64.583V71.4668C40.4302 72.7342 39.4027 73.7617 38.1353 73.7617H18.3589C17.0915 73.7617 16.064 72.7342 16.064 71.4668V64.583H40.4302Z" stroke="#CBE2DB" stroke-width="0.65567"/>
<mask id="path-25-inside-2_0_1" fill="white">
<path d="M42.0698 36.596C42.0698 35.214 43.1901 34.0938 44.5721 34.0938H64.5901C65.972 34.0938 67.0923 35.214 67.0923 36.596V64.2546H42.0698V36.596Z"/>
</mask>
<path d="M42.0698 36.596C42.0698 35.214 43.1901 34.0938 44.5721 34.0938H64.5901C65.972 34.0938 67.0923 35.214 67.0923 36.596V64.2546H42.0698V36.596Z" fill="#F2F8F6"/>
<path d="M41.4142 36.596C41.4142 34.8519 42.828 33.4381 44.5721 33.4381H64.5901C66.3342 33.4381 67.748 34.8519 67.748 36.596H66.4367C66.4367 35.5762 65.6099 34.7494 64.5901 34.7494H44.5721C43.5522 34.7494 42.7255 35.5762 42.7255 36.596H41.4142ZM67.0923 64.2546H42.0698H67.0923ZM41.4142 64.2546V36.596C41.4142 34.8519 42.828 33.4381 44.5721 33.4381V34.7494C43.5522 34.7494 42.7255 35.5762 42.7255 36.596V64.2546H41.4142ZM64.5901 33.4381C66.3342 33.4381 67.748 34.8519 67.748 36.596V64.2546H66.4367V36.596C66.4367 35.5762 65.6099 34.7494 64.5901 34.7494V33.4381Z" fill="#CBE2DB" mask="url(#path-25-inside-2_0_1)"/>
<path d="M66.7642 64.583V71.4668C66.7642 72.7342 65.7366 73.7617 64.4692 73.7617H44.6929C43.4255 73.7617 42.3979 72.7342 42.3979 71.4668V64.583H66.7642Z" fill="#F2F8F6"/>
<path d="M66.7642 64.583V71.4668C66.7642 72.7342 65.7366 73.7617 64.4692 73.7617H44.6929C43.4255 73.7617 42.3979 72.7342 42.3979 71.4668V64.583H66.7642Z" stroke="#CBE2DB" stroke-width="0.65567"/>
<mask id="path-28-inside-3_0_1" fill="white">
<path d="M68.4033 36.596C68.4033 35.214 69.5236 34.0938 70.9056 34.0938H90.9236C92.3055 34.0938 93.4258 35.214 93.4258 36.596V64.2546H68.4033V36.596Z"/>
</mask>
<path d="M68.4033 36.596C68.4033 35.214 69.5236 34.0938 70.9056 34.0938H90.9236C92.3055 34.0938 93.4258 35.214 93.4258 36.596V64.2546H68.4033V36.596Z" fill="#F2F8F6"/>
<path d="M67.7477 36.596C67.7477 34.8519 69.1615 33.4381 70.9056 33.4381H90.9236C92.6677 33.4381 94.0815 34.8519 94.0815 36.596H92.7702C92.7702 35.5762 91.9434 34.7494 90.9236 34.7494H70.9056C69.8857 34.7494 69.059 35.5762 69.059 36.596H67.7477ZM93.4258 64.2546H68.4033H93.4258ZM67.7477 64.2546V36.596C67.7477 34.8519 69.1615 33.4381 70.9056 33.4381V34.7494C69.8857 34.7494 69.059 35.5762 69.059 36.596V64.2546H67.7477ZM90.9236 33.4381C92.6677 33.4381 94.0815 34.8519 94.0815 36.596V64.2546H92.7702V36.596C92.7702 35.5762 91.9434 34.7494 90.9236 34.7494V33.4381Z" fill="#CBE2DB" mask="url(#path-28-inside-3_0_1)"/>
<path d="M93.0977 64.583V71.4668C93.0977 72.7342 92.0701 73.7617 90.8027 73.7617H71.0264C69.759 73.7617 68.7314 72.7342 68.7314 71.4668V64.583H93.0977Z" fill="#F2F8F6"/>
<path d="M93.0977 64.583V71.4668C93.0977 72.7342 92.0701 73.7617 90.8027 73.7617H71.0264C69.759 73.7617 68.7314 72.7342 68.7314 71.4668V64.583H93.0977Z" stroke="#CBE2DB" stroke-width="0.65567"/>
<mask id="path-31-inside-4_0_1" fill="white">
<path d="M15.7358 81.8372C15.7358 80.4553 16.8561 79.335 18.2381 79.335H38.2561C39.6381 79.335 40.7583 80.4553 40.7583 81.8372V109.496H15.7358V81.8372Z"/>
</mask>
<path d="M15.7358 81.8372C15.7358 80.4553 16.8561 79.335 18.2381 79.335H38.2561C39.6381 79.335 40.7583 80.4553 40.7583 81.8372V109.496H15.7358V81.8372Z" fill="#F2F8F6"/>
<path d="M15.0802 81.8372C15.0802 80.0931 16.494 78.6793 18.2381 78.6793H38.2561C40.0002 78.6793 41.414 80.0931 41.414 81.8372H40.1027C40.1027 80.8174 39.2759 79.9906 38.2561 79.9906H18.2381C17.2183 79.9906 16.3915 80.8174 16.3915 81.8372H15.0802ZM40.7583 109.496H15.7358H40.7583ZM15.0802 109.496V81.8372C15.0802 80.0931 16.494 78.6793 18.2381 78.6793V79.9906C17.2183 79.9906 16.3915 80.8174 16.3915 81.8372V109.496H15.0802ZM38.2561 78.6793C40.0002 78.6793 41.414 80.0931 41.414 81.8372V109.496H40.1027V81.8372C40.1027 80.8174 39.2759 79.9906 38.2561 79.9906V78.6793Z" fill="#CBE2DB" mask="url(#path-31-inside-4_0_1)"/>
<path d="M40.4302 109.824V116.708C40.4302 117.975 39.4027 119.003 38.1353 119.003H18.3589C17.0915 119.003 16.064 117.975 16.064 116.708V109.824H40.4302Z" fill="#F2F8F6"/>
<path d="M40.4302 109.824V116.708C40.4302 117.975 39.4027 119.003 38.1353 119.003H18.3589C17.0915 119.003 16.064 117.975 16.064 116.708V109.824H40.4302Z" stroke="#CBE2DB" stroke-width="0.65567"/>
<mask id="path-34-inside-5_0_1" fill="white">
<path d="M42.0698 81.8372C42.0698 80.4553 43.1901 79.335 44.5721 79.335H64.5901C65.972 79.335 67.0923 80.4553 67.0923 81.8372V109.496H42.0698V81.8372Z"/>
</mask>
<path d="M42.0698 81.8372C42.0698 80.4553 43.1901 79.335 44.5721 79.335H64.5901C65.972 79.335 67.0923 80.4553 67.0923 81.8372V109.496H42.0698V81.8372Z" fill="#F2F8F6"/>
<path d="M41.4142 81.8372C41.4142 80.0931 42.828 78.6793 44.5721 78.6793H64.5901C66.3342 78.6793 67.748 80.0931 67.748 81.8372H66.4367C66.4367 80.8174 65.6099 79.9906 64.5901 79.9906H44.5721C43.5522 79.9906 42.7255 80.8174 42.7255 81.8372H41.4142ZM67.0923 109.496H42.0698H67.0923ZM41.4142 109.496V81.8372C41.4142 80.0931 42.828 78.6793 44.5721 78.6793V79.9906C43.5522 79.9906 42.7255 80.8174 42.7255 81.8372V109.496H41.4142ZM64.5901 78.6793C66.3342 78.6793 67.748 80.0931 67.748 81.8372V109.496H66.4367V81.8372C66.4367 80.8174 65.6099 79.9906 64.5901 79.9906V78.6793Z" fill="#CBE2DB" mask="url(#path-34-inside-5_0_1)"/>
<path d="M66.7642 109.824V116.708C66.7642 117.975 65.7366 119.003 64.4692 119.003H44.6929C43.4255 119.003 42.3979 117.975 42.3979 116.708V109.824H66.7642Z" fill="#F2F8F6"/>
<path d="M66.7642 109.824V116.708C66.7642 117.975 65.7366 119.003 64.4692 119.003H44.6929C43.4255 119.003 42.3979 117.975 42.3979 116.708V109.824H66.7642Z" stroke="#CBE2DB" stroke-width="0.65567"/>
<mask id="path-37-inside-6_0_1" fill="white">
<path d="M68.4033 81.8372C68.4033 80.4553 69.5236 79.335 70.9056 79.335H90.9236C92.3055 79.335 93.4258 80.4553 93.4258 81.8372V109.496H68.4033V81.8372Z"/>
</mask>
<path d="M68.4033 81.8372C68.4033 80.4553 69.5236 79.335 70.9056 79.335H90.9236C92.3055 79.335 93.4258 80.4553 93.4258 81.8372V109.496H68.4033V81.8372Z" fill="#F2F8F6"/>
<path d="M67.7477 81.8372C67.7477 80.0931 69.1615 78.6793 70.9056 78.6793H90.9236C92.6677 78.6793 94.0815 80.0931 94.0815 81.8372H92.7702C92.7702 80.8174 91.9434 79.9906 90.9236 79.9906H70.9056C69.8857 79.9906 69.059 80.8174 69.059 81.8372H67.7477ZM93.4258 109.496H68.4033H93.4258ZM67.7477 109.496V81.8372C67.7477 80.0931 69.1615 78.6793 70.9056 78.6793V79.9906C69.8857 79.9906 69.059 80.8174 69.059 81.8372V109.496H67.7477ZM90.9236 78.6793C92.6677 78.6793 94.0815 80.0931 94.0815 81.8372V109.496H92.7702V81.8372C92.7702 80.8174 91.9434 79.9906 90.9236 79.9906V78.6793Z" fill="#CBE2DB" mask="url(#path-37-inside-6_0_1)"/>
<path d="M93.0977 109.824V116.708C93.0977 117.975 92.0701 119.003 90.8027 119.003H71.0264C69.759 119.003 68.7314 117.975 68.7314 116.708V109.824H93.0977Z" fill="#F2F8F6"/>
<path d="M93.0977 109.824V116.708C93.0977 117.975 92.0701 119.003 90.8027 119.003H71.0264C69.759 119.003 68.7314 117.975 68.7314 116.708V109.824H93.0977Z" stroke="#CBE2DB" stroke-width="0.65567"/>
<mask id="path-40-inside-7_0_1" fill="white">
<path d="M15.7358 127.078C15.7358 125.696 16.8561 124.576 18.2381 124.576H38.2561C39.6381 124.576 40.7583 125.696 40.7583 127.078V154.737H15.7358V127.078Z"/>
</mask>
<path d="M15.7358 127.078C15.7358 125.696 16.8561 124.576 18.2381 124.576H38.2561C39.6381 124.576 40.7583 125.696 40.7583 127.078V154.737H15.7358V127.078Z" fill="#F2F8F6"/>
<path d="M15.0802 127.078C15.0802 125.334 16.494 123.921 18.2381 123.921H38.2561C40.0002 123.921 41.414 125.334 41.414 127.078H40.1027C40.1027 126.059 39.2759 125.232 38.2561 125.232H18.2381C17.2183 125.232 16.3915 126.059 16.3915 127.078H15.0802ZM40.7583 154.737H15.7358H40.7583ZM15.0802 154.737V127.078C15.0802 125.334 16.494 123.921 18.2381 123.921V125.232C17.2183 125.232 16.3915 126.059 16.3915 127.078V154.737H15.0802ZM38.2561 123.921C40.0002 123.921 41.414 125.334 41.414 127.078V154.737H40.1027V127.078C40.1027 126.059 39.2759 125.232 38.2561 125.232V123.921Z" fill="#CBE2DB" mask="url(#path-40-inside-7_0_1)"/>
<path d="M40.4302 155.065V161.949C40.4302 163.217 39.4027 164.244 38.1353 164.244H18.3589C17.0915 164.244 16.064 163.217 16.064 161.949V155.065H40.4302Z" fill="#F2F8F6"/>
<path d="M40.4302 155.065V161.949C40.4302 163.217 39.4027 164.244 38.1353 164.244H18.3589C17.0915 164.244 16.064 163.217 16.064 161.949V155.065H40.4302Z" stroke="#CBE2DB" stroke-width="0.65567"/>
<mask id="path-43-inside-8_0_1" fill="white">
<path d="M42.0698 127.078C42.0698 125.696 43.1901 124.576 44.5721 124.576H64.5901C65.972 124.576 67.0923 125.696 67.0923 127.078V154.737H42.0698V127.078Z"/>
</mask>
<path d="M42.0698 127.078C42.0698 125.696 43.1901 124.576 44.5721 124.576H64.5901C65.972 124.576 67.0923 125.696 67.0923 127.078V154.737H42.0698V127.078Z" fill="#F2F8F6"/>
<path d="M41.4142 127.078C41.4142 125.334 42.828 123.921 44.5721 123.921H64.5901C66.3342 123.921 67.748 125.334 67.748 127.078H66.4367C66.4367 126.059 65.6099 125.232 64.5901 125.232H44.5721C43.5522 125.232 42.7255 126.059 42.7255 127.078H41.4142ZM67.0923 154.737H42.0698H67.0923ZM41.4142 154.737V127.078C41.4142 125.334 42.828 123.921 44.5721 123.921V125.232C43.5522 125.232 42.7255 126.059 42.7255 127.078V154.737H41.4142ZM64.5901 123.921C66.3342 123.921 67.748 125.334 67.748 127.078V154.737H66.4367V127.078C66.4367 126.059 65.6099 125.232 64.5901 125.232V123.921Z" fill="#CBE2DB" mask="url(#path-43-inside-8_0_1)"/>
<path d="M66.7642 155.065V161.949C66.7642 163.217 65.7366 164.244 64.4692 164.244H44.6929C43.4255 164.244 42.3979 163.217 42.3979 161.949V155.065H66.7642Z" fill="#F2F8F6"/>
<path d="M66.7642 155.065V161.949C66.7642 163.217 65.7366 164.244 64.4692 164.244H44.6929C43.4255 164.244 42.3979 163.217 42.3979 161.949V155.065H66.7642Z" stroke="#CBE2DB" stroke-width="0.65567"/>
<mask id="path-46-inside-9_0_1" fill="white">
<path d="M68.4033 127.078C68.4033 125.696 69.5236 124.576 70.9056 124.576H90.9236C92.3055 124.576 93.4258 125.696 93.4258 127.078V154.737H68.4033V127.078Z"/>
</mask>
<path d="M68.4033 127.078C68.4033 125.696 69.5236 124.576 70.9056 124.576H90.9236C92.3055 124.576 93.4258 125.696 93.4258 127.078V154.737H68.4033V127.078Z" fill="#F2F8F6"/>
<path d="M67.7477 127.078C67.7477 125.334 69.1615 123.921 70.9056 123.921H90.9236C92.6677 123.921 94.0815 125.334 94.0815 127.078H92.7702C92.7702 126.059 91.9434 125.232 90.9236 125.232H70.9056C69.8857 125.232 69.059 126.059 69.059 127.078H67.7477ZM93.4258 154.737H68.4033H93.4258ZM67.7477 154.737V127.078C67.7477 125.334 69.1615 123.921 70.9056 123.921V125.232C69.8857 125.232 69.059 126.059 69.059 127.078V154.737H67.7477ZM90.9236 123.921C92.6677 123.921 94.0815 125.334 94.0815 127.078V154.737H92.7702V127.078C92.7702 126.059 91.9434 125.232 90.9236 125.232V123.921Z" fill="#CBE2DB" mask="url(#path-46-inside-9_0_1)"/>
<path d="M93.0977 155.065V161.949C93.0977 163.217 92.0701 164.244 90.8027 164.244H71.0264C69.759 164.244 68.7314 163.217 68.7314 161.949V155.065H93.0977Z" fill="#F2F8F6"/>
<path d="M93.0977 155.065V161.949C93.0977 163.217 92.0701 164.244 90.8027 164.244H71.0264C69.759 164.244 68.7314 163.217 68.7314 161.949V155.065H93.0977Z" stroke="#CBE2DB" stroke-width="0.65567"/>
<mask id="path-49-inside-10_0_1" fill="white">
<path d="M15.7358 172.32C15.7358 170.938 16.8561 169.817 18.2381 169.817H38.2561C39.6381 169.817 40.7583 170.938 40.7583 172.32V199.978H15.7358V172.32Z"/>
</mask>
<path d="M15.7358 172.32C15.7358 170.938 16.8561 169.817 18.2381 169.817H38.2561C39.6381 169.817 40.7583 170.938 40.7583 172.32V199.978H15.7358V172.32Z" fill="#F2F8F6"/>
<path d="M15.0802 172.32C15.0802 170.576 16.494 169.162 18.2381 169.162H38.2561C40.0002 169.162 41.414 170.576 41.414 172.32H40.1027C40.1027 171.3 39.2759 170.473 38.2561 170.473H18.2381C17.2183 170.473 16.3915 171.3 16.3915 172.32H15.0802ZM40.7583 199.978H15.7358H40.7583ZM15.0802 199.978V172.32C15.0802 170.576 16.494 169.162 18.2381 169.162V170.473C17.2183 170.473 16.3915 171.3 16.3915 172.32V199.978H15.0802ZM38.2561 169.162C40.0002 169.162 41.414 170.576 41.414 172.32V199.978H40.1027V172.32C40.1027 171.3 39.2759 170.473 38.2561 170.473V169.162Z" fill="#CBE2DB" mask="url(#path-49-inside-10_0_1)"/>
<path d="M40.4302 200.307V207.19C40.4302 208.458 39.4027 209.485 38.1353 209.485H18.3589C17.0915 209.485 16.064 208.458 16.064 207.19V200.307H40.4302Z" fill="#F2F8F6"/>
<path d="M40.4302 200.307V207.19C40.4302 208.458 39.4027 209.485 38.1353 209.485H18.3589C17.0915 209.485 16.064 208.458 16.064 207.19V200.307H40.4302Z" stroke="#CBE2DB" stroke-width="0.65567"/>
<mask id="path-52-inside-11_0_1" fill="white">
<path d="M42.0698 172.32C42.0698 170.938 43.1901 169.817 44.5721 169.817H64.5901C65.972 169.817 67.0923 170.938 67.0923 172.32V199.978H42.0698V172.32Z"/>
</mask>
<path d="M42.0698 172.32C42.0698 170.938 43.1901 169.817 44.5721 169.817H64.5901C65.972 169.817 67.0923 170.938 67.0923 172.32V199.978H42.0698V172.32Z" fill="#F2F8F6"/>
<path d="M41.4142 172.32C41.4142 170.576 42.828 169.162 44.5721 169.162H64.5901C66.3342 169.162 67.748 170.576 67.748 172.32H66.4367C66.4367 171.3 65.6099 170.473 64.5901 170.473H44.5721C43.5522 170.473 42.7255 171.3 42.7255 172.32H41.4142ZM67.0923 199.978H42.0698H67.0923ZM41.4142 199.978V172.32C41.4142 170.576 42.828 169.162 44.5721 169.162V170.473C43.5522 170.473 42.7255 171.3 42.7255 172.32V199.978H41.4142ZM64.5901 169.162C66.3342 169.162 67.748 170.576 67.748 172.32V199.978H66.4367V172.32C66.4367 171.3 65.6099 170.473 64.5901 170.473V169.162Z" fill="#CBE2DB" mask="url(#path-52-inside-11_0_1)"/>
<path d="M66.7642 200.307V207.19C66.7642 208.458 65.7366 209.485 64.4692 209.485H44.6929C43.4255 209.485 42.3979 208.458 42.3979 207.19V200.307H66.7642Z" fill="#F2F8F6"/>
<path d="M66.7642 200.307V207.19C66.7642 208.458 65.7366 209.485 64.4692 209.485H44.6929C43.4255 209.485 42.3979 208.458 42.3979 207.19V200.307H66.7642Z" stroke="#CBE2DB" stroke-width="0.65567"/>
<mask id="path-55-inside-12_0_1" fill="white">
<path d="M68.4033 172.32C68.4033 170.938 69.5236 169.817 70.9056 169.817H90.9236C92.3055 169.817 93.4258 170.938 93.4258 172.32V199.978H68.4033V172.32Z"/>
</mask>
<path d="M68.4033 172.32C68.4033 170.938 69.5236 169.817 70.9056 169.817H90.9236C92.3055 169.817 93.4258 170.938 93.4258 172.32V199.978H68.4033V172.32Z" fill="#F2F8F6"/>
<path d="M67.7477 172.32C67.7477 170.576 69.1615 169.162 70.9056 169.162H90.9236C92.6677 169.162 94.0815 170.576 94.0815 172.32H92.7702C92.7702 171.3 91.9434 170.473 90.9236 170.473H70.9056C69.8857 170.473 69.059 171.3 69.059 172.32H67.7477ZM93.4258 199.978H68.4033H93.4258ZM67.7477 199.978V172.32C67.7477 170.576 69.1615 169.162 70.9056 169.162V170.473C69.8857 170.473 69.059 171.3 69.059 172.32V199.978H67.7477ZM90.9236 169.162C92.6677 169.162 94.0815 170.576 94.0815 172.32V199.978H92.7702V172.32C92.7702 171.3 91.9434 170.473 90.9236 170.473V169.162Z" fill="#CBE2DB" mask="url(#path-55-inside-12_0_1)"/>
<path d="M93.0977 200.307V207.19C93.0977 208.458 92.0701 209.485 90.8027 209.485H71.0264C69.759 209.485 68.7314 208.458 68.7314 207.19V200.307H93.0977Z" fill="#F2F8F6"/>
<path d="M93.0977 200.307V207.19C93.0977 208.458 92.0701 209.485 90.8027 209.485H71.0264C69.759 209.485 68.7314 208.458 68.7314 207.19V200.307H93.0977Z" stroke="#CBE2DB" stroke-width="0.65567"/>
<mask id="path-58-inside-13_0_1" fill="white">
<path d="M129.823 36.596C129.823 35.214 130.943 34.0938 132.325 34.0938H152.343C153.725 34.0938 154.845 35.214 154.845 36.596V64.2546H129.823V36.596Z"/>
</mask>
<path d="M129.823 36.596C129.823 35.214 130.943 34.0938 132.325 34.0938H152.343C153.725 34.0938 154.845 35.214 154.845 36.596V64.2546H129.823V36.596Z" fill="#F2F8F6"/>
<path d="M129.167 36.596C129.167 34.8519 130.581 33.4381 132.325 33.4381H152.343C154.087 33.4381 155.501 34.8519 155.501 36.596H154.19C154.19 35.5762 153.363 34.7494 152.343 34.7494H132.325C131.305 34.7494 130.478 35.5762 130.478 36.596H129.167ZM154.845 64.2546H129.823H154.845ZM129.167 64.2546V36.596C129.167 34.8519 130.581 33.4381 132.325 33.4381V34.7494C131.305 34.7494 130.478 35.5762 130.478 36.596V64.2546H129.167ZM152.343 33.4381C154.087 33.4381 155.501 34.8519 155.501 36.596V64.2546H154.19V36.596C154.19 35.5762 153.363 34.7494 152.343 34.7494V33.4381Z" fill="#CBE2DB" mask="url(#path-58-inside-13_0_1)"/>
<path d="M154.517 64.583V71.4668C154.517 72.7342 153.49 73.7617 152.222 73.7617H132.446C131.178 73.7617 130.151 72.7342 130.151 71.4668V64.583H154.517Z" fill="#F2F8F6"/>
<path d="M154.517 64.583V71.4668C154.517 72.7342 153.49 73.7617 152.222 73.7617H132.446C131.178 73.7617 130.151 72.7342 130.151 71.4668V64.583H154.517Z" stroke="#CBE2DB" stroke-width="0.65567"/>
<mask id="path-61-inside-14_0_1" fill="white">
<path d="M156.157 36.596C156.157 35.214 157.277 34.0938 158.659 34.0938H178.677C180.059 34.0938 181.179 35.214 181.179 36.596V64.2546H156.157V36.596Z"/>
</mask>
<path d="M156.157 36.596C156.157 35.214 157.277 34.0938 158.659 34.0938H178.677C180.059 34.0938 181.179 35.214 181.179 36.596V64.2546H156.157V36.596Z" fill="#F2F8F6"/>
<path d="M155.501 36.596C155.501 34.8519 156.915 33.4381 158.659 33.4381H178.677C180.421 33.4381 181.835 34.8519 181.835 36.596H180.524C180.524 35.5762 179.697 34.7494 178.677 34.7494H158.659C157.639 34.7494 156.812 35.5762 156.812 36.596H155.501ZM181.179 64.2546H156.157H181.179ZM155.501 64.2546V36.596C155.501 34.8519 156.915 33.4381 158.659 33.4381V34.7494C157.639 34.7494 156.812 35.5762 156.812 36.596V64.2546H155.501ZM178.677 33.4381C180.421 33.4381 181.835 34.8519 181.835 36.596V64.2546H180.524V36.596C180.524 35.5762 179.697 34.7494 178.677 34.7494V33.4381Z" fill="#CBE2DB" mask="url(#path-61-inside-14_0_1)"/>
<path d="M180.851 64.583V71.4668C180.851 72.7342 179.824 73.7617 178.556 73.7617H158.78C157.512 73.7617 156.485 72.7342 156.485 71.4668V64.583H180.851Z" fill="#F2F8F6"/>
<path d="M180.851 64.583V71.4668C180.851 72.7342 179.824 73.7617 178.556 73.7617H158.78C157.512 73.7617 156.485 72.7342 156.485 71.4668V64.583H180.851Z" stroke="#CBE2DB" stroke-width="0.65567"/>
<mask id="path-64-inside-15_0_1" fill="white">
<path d="M182.49 36.596C182.49 35.214 183.611 34.0938 184.992 34.0938H205.01C206.392 34.0938 207.513 35.214 207.513 36.596V64.2546H182.49V36.596Z"/>
</mask>
<path d="M182.49 36.596C182.49 35.214 183.611 34.0938 184.992 34.0938H205.01C206.392 34.0938 207.513 35.214 207.513 36.596V64.2546H182.49V36.596Z" fill="#F2F8F6"/>
<path d="M181.835 36.596C181.835 34.8519 183.248 33.4381 184.992 33.4381H205.01C206.755 33.4381 208.168 34.8519 208.168 36.596H206.857C206.857 35.5762 206.03 34.7494 205.01 34.7494H184.992C183.973 34.7494 183.146 35.5762 183.146 36.596H181.835ZM207.513 64.2546H182.49H207.513ZM181.835 64.2546V36.596C181.835 34.8519 183.248 33.4381 184.992 33.4381V34.7494C183.973 34.7494 183.146 35.5762 183.146 36.596V64.2546H181.835ZM205.01 33.4381C206.755 33.4381 208.168 34.8519 208.168 36.596V64.2546H206.857V36.596C206.857 35.5762 206.03 34.7494 205.01 34.7494V33.4381Z" fill="#CBE2DB" mask="url(#path-64-inside-15_0_1)"/>
<path d="M207.185 64.583V71.4668C207.185 72.7342 206.157 73.7617 204.89 73.7617H185.113C183.846 73.7617 182.818 72.7342 182.818 71.4668V64.583H207.185Z" fill="#F2F8F6"/>
<path d="M207.185 64.583V71.4668C207.185 72.7342 206.157 73.7617 204.89 73.7617H185.113C183.846 73.7617 182.818 72.7342 182.818 71.4668V64.583H207.185Z" stroke="#CBE2DB" stroke-width="0.65567"/>
<mask id="path-67-inside-16_0_1" fill="white">
<path d="M129.823 81.8372C129.823 80.4553 130.943 79.335 132.325 79.335H152.343C153.725 79.335 154.845 80.4553 154.845 81.8372V109.496H129.823V81.8372Z"/>
</mask>
<path d="M129.823 81.8372C129.823 80.4553 130.943 79.335 132.325 79.335H152.343C153.725 79.335 154.845 80.4553 154.845 81.8372V109.496H129.823V81.8372Z" fill="#F2F8F6"/>
<path d="M129.167 81.8372C129.167 80.0931 130.581 78.6793 132.325 78.6793H152.343C154.087 78.6793 155.501 80.0931 155.501 81.8372H154.19C154.19 80.8174 153.363 79.9906 152.343 79.9906H132.325C131.305 79.9906 130.478 80.8174 130.478 81.8372H129.167ZM154.845 109.496H129.823H154.845ZM129.167 109.496V81.8372C129.167 80.0931 130.581 78.6793 132.325 78.6793V79.9906C131.305 79.9906 130.478 80.8174 130.478 81.8372V109.496H129.167ZM152.343 78.6793C154.087 78.6793 155.501 80.0931 155.501 81.8372V109.496H154.19V81.8372C154.19 80.8174 153.363 79.9906 152.343 79.9906V78.6793Z" fill="#CBE2DB" mask="url(#path-67-inside-16_0_1)"/>
<path d="M154.517 109.824V116.708C154.517 117.975 153.49 119.003 152.222 119.003H132.446C131.178 119.003 130.151 117.975 130.151 116.708V109.824H154.517Z" fill="#F2F8F6"/>
<path d="M154.517 109.824V116.708C154.517 117.975 153.49 119.003 152.222 119.003H132.446C131.178 119.003 130.151 117.975 130.151 116.708V109.824H154.517Z" stroke="#CBE2DB" stroke-width="0.65567"/>
<mask id="path-70-inside-17_0_1" fill="white">
<path d="M156.157 81.8372C156.157 80.4553 157.277 79.335 158.659 79.335H178.677C180.059 79.335 181.179 80.4553 181.179 81.8372V109.496H156.157V81.8372Z"/>
</mask>
<path d="M156.157 81.8372C156.157 80.4553 157.277 79.335 158.659 79.335H178.677C180.059 79.335 181.179 80.4553 181.179 81.8372V109.496H156.157V81.8372Z" fill="#F2F8F6"/>
<path d="M155.501 81.8372C155.501 80.0931 156.915 78.6793 158.659 78.6793H178.677C180.421 78.6793 181.835 80.0931 181.835 81.8372H180.524C180.524 80.8174 179.697 79.9906 178.677 79.9906H158.659C157.639 79.9906 156.812 80.8174 156.812 81.8372H155.501ZM181.179 109.496H156.157H181.179ZM155.501 109.496V81.8372C155.501 80.0931 156.915 78.6793 158.659 78.6793V79.9906C157.639 79.9906 156.812 80.8174 156.812 81.8372V109.496H155.501ZM178.677 78.6793C180.421 78.6793 181.835 80.0931 181.835 81.8372V109.496H180.524V81.8372C180.524 80.8174 179.697 79.9906 178.677 79.9906V78.6793Z" fill="#CBE2DB" mask="url(#path-70-inside-17_0_1)"/>
<path d="M180.851 109.824V116.708C180.851 117.975 179.824 119.003 178.556 119.003H158.78C157.512 119.003 156.485 117.975 156.485 116.708V109.824H180.851Z" fill="#F2F8F6"/>
<path d="M180.851 109.824V116.708C180.851 117.975 179.824 119.003 178.556 119.003H158.78C157.512 119.003 156.485 117.975 156.485 116.708V109.824H180.851Z" stroke="#CBE2DB" stroke-width="0.65567"/>
<mask id="path-73-inside-18_0_1" fill="white">
<path d="M182.49 81.8372C182.49 80.4553 183.611 79.335 184.992 79.335H205.01C206.392 79.335 207.513 80.4553 207.513 81.8372V109.496H182.49V81.8372Z"/>
</mask>
<path d="M182.49 81.8372C182.49 80.4553 183.611 79.335 184.992 79.335H205.01C206.392 79.335 207.513 80.4553 207.513 81.8372V109.496H182.49V81.8372Z" fill="#F2F8F6"/>
<path d="M181.835 81.8372C181.835 80.0931 183.248 78.6793 184.992 78.6793H205.01C206.755 78.6793 208.168 80.0931 208.168 81.8372H206.857C206.857 80.8174 206.03 79.9906 205.01 79.9906H184.992C183.973 79.9906 183.146 80.8174 183.146 81.8372H181.835ZM207.513 109.496H182.49H207.513ZM181.835 109.496V81.8372C181.835 80.0931 183.248 78.6793 184.992 78.6793V79.9906C183.973 79.9906 183.146 80.8174 183.146 81.8372V109.496H181.835ZM205.01 78.6793C206.755 78.6793 208.168 80.0931 208.168 81.8372V109.496H206.857V81.8372C206.857 80.8174 206.03 79.9906 205.01 79.9906V78.6793Z" fill="#CBE2DB" mask="url(#path-73-inside-18_0_1)"/>
<path d="M207.185 109.824V116.708C207.185 117.975 206.157 119.003 204.89 119.003H185.113C183.846 119.003 182.818 117.975 182.818 116.708V109.824H207.185Z" fill="#F2F8F6"/>
<path d="M207.185 109.824V116.708C207.185 117.975 206.157 119.003 204.89 119.003H185.113C183.846 119.003 182.818 117.975 182.818 116.708V109.824H207.185Z" stroke="#CBE2DB" stroke-width="0.65567"/>
<mask id="path-76-inside-19_0_1" fill="white">
<path d="M129.823 127.078C129.823 125.696 130.943 124.576 132.325 124.576H152.343C153.725 124.576 154.845 125.696 154.845 127.078V154.737H129.823V127.078Z"/>
</mask>
<path d="M129.823 127.078C129.823 125.696 130.943 124.576 132.325 124.576H152.343C153.725 124.576 154.845 125.696 154.845 127.078V154.737H129.823V127.078Z" fill="#F2F8F6"/>
<path d="M129.167 127.078C129.167 125.334 130.581 123.921 132.325 123.921H152.343C154.087 123.921 155.501 125.334 155.501 127.078H154.19C154.19 126.059 153.363 125.232 152.343 125.232H132.325C131.305 125.232 130.478 126.059 130.478 127.078H129.167ZM154.845 154.737H129.823H154.845ZM129.167 154.737V127.078C129.167 125.334 130.581 123.921 132.325 123.921V125.232C131.305 125.232 130.478 126.059 130.478 127.078V154.737H129.167ZM152.343 123.921C154.087 123.921 155.501 125.334 155.501 127.078V154.737H154.19V127.078C154.19 126.059 153.363 125.232 152.343 125.232V123.921Z" fill="#CBE2DB" mask="url(#path-76-inside-19_0_1)"/>
<path d="M154.517 155.065V161.949C154.517 163.217 153.49 164.244 152.222 164.244H132.446C131.178 164.244 130.151 163.217 130.151 161.949V155.065H154.517Z" fill="#F2F8F6"/>
<path d="M154.517 155.065V161.949C154.517 163.217 153.49 164.244 152.222 164.244H132.446C131.178 164.244 130.151 163.217 130.151 161.949V155.065H154.517Z" stroke="#CBE2DB" stroke-width="0.65567"/>
<mask id="path-79-inside-20_0_1" fill="white">
<path d="M156.157 127.078C156.157 125.696 157.277 124.576 158.659 124.576H178.677C180.059 124.576 181.179 125.696 181.179 127.078V154.737H156.157V127.078Z"/>
</mask>
<path d="M156.157 127.078C156.157 125.696 157.277 124.576 158.659 124.576H178.677C180.059 124.576 181.179 125.696 181.179 127.078V154.737H156.157V127.078Z" fill="#F2F8F6"/>
<path d="M155.501 127.078C155.501 125.334 156.915 123.921 158.659 123.921H178.677C180.421 123.921 181.835 125.334 181.835 127.078H180.524C180.524 126.059 179.697 125.232 178.677 125.232H158.659C157.639 125.232 156.812 126.059 156.812 127.078H155.501ZM181.179 154.737H156.157H181.179ZM155.501 154.737V127.078C155.501 125.334 156.915 123.921 158.659 123.921V125.232C157.639 125.232 156.812 126.059 156.812 127.078V154.737H155.501ZM178.677 123.921C180.421 123.921 181.835 125.334 181.835 127.078V154.737H180.524V127.078C180.524 126.059 179.697 125.232 178.677 125.232V123.921Z" fill="#CBE2DB" mask="url(#path-79-inside-20_0_1)"/>
<path d="M180.851 155.065V161.949C180.851 163.217 179.824 164.244 178.556 164.244H158.78C157.512 164.244 156.485 163.217 156.485 161.949V155.065H180.851Z" fill="#F2F8F6"/>
<path d="M180.851 155.065V161.949C180.851 163.217 179.824 164.244 178.556 164.244H158.78C157.512 164.244 156.485 163.217 156.485 161.949V155.065H180.851Z" stroke="#CBE2DB" stroke-width="0.65567"/>
<mask id="path-82-inside-21_0_1" fill="white">
<path d="M182.49 127.078C182.49 125.696 183.611 124.576 184.992 124.576H205.01C206.392 124.576 207.513 125.696 207.513 127.078V154.737H182.49V127.078Z"/>
</mask>
<path d="M182.49 127.078C182.49 125.696 183.611 124.576 184.992 124.576H205.01C206.392 124.576 207.513 125.696 207.513 127.078V154.737H182.49V127.078Z" fill="#F2F8F6"/>
<path d="M181.835 127.078C181.835 125.334 183.248 123.921 184.992 123.921H205.01C206.755 123.921 208.168 125.334 208.168 127.078H206.857C206.857 126.059 206.03 125.232 205.01 125.232H184.992C183.973 125.232 183.146 126.059 183.146 127.078H181.835ZM207.513 154.737H182.49H207.513ZM181.835 154.737V127.078C181.835 125.334 183.248 123.921 184.992 123.921V125.232C183.973 125.232 183.146 126.059 183.146 127.078V154.737H181.835ZM205.01 123.921C206.755 123.921 208.168 125.334 208.168 127.078V154.737H206.857V127.078C206.857 126.059 206.03 125.232 205.01 125.232V123.921Z" fill="#CBE2DB" mask="url(#path-82-inside-21_0_1)"/>
<path d="M207.185 155.065V161.949C207.185 163.217 206.157 164.244 204.89 164.244H185.113C183.846 164.244 182.818 163.217 182.818 161.949V155.065H207.185Z" fill="#F2F8F6"/>
<path d="M207.185 155.065V161.949C207.185 163.217 206.157 164.244 204.89 164.244H185.113C183.846 164.244 182.818 163.217 182.818 161.949V155.065H207.185Z" stroke="#CBE2DB" stroke-width="0.65567"/>
<mask id="path-85-inside-22_0_1" fill="white">
<path d="M129.823 172.32C129.823 170.938 130.943 169.817 132.325 169.817H152.343C153.725 169.817 154.845 170.938 154.845 172.32V199.978H129.823V172.32Z"/>
</mask>
<path d="M129.823 172.32C129.823 170.938 130.943 169.817 132.325 169.817H152.343C153.725 169.817 154.845 170.938 154.845 172.32V199.978H129.823V172.32Z" fill="#F2F8F6"/>
<path d="M129.167 172.32C129.167 170.576 130.581 169.162 132.325 169.162H152.343C154.087 169.162 155.501 170.576 155.501 172.32H154.19C154.19 171.3 153.363 170.473 152.343 170.473H132.325C131.305 170.473 130.478 171.3 130.478 172.32H129.167ZM154.845 199.978H129.823H154.845ZM129.167 199.978V172.32C129.167 170.576 130.581 169.162 132.325 169.162V170.473C131.305 170.473 130.478 171.3 130.478 172.32V199.978H129.167ZM152.343 169.162C154.087 169.162 155.501 170.576 155.501 172.32V199.978H154.19V172.32C154.19 171.3 153.363 170.473 152.343 170.473V169.162Z" fill="#CBE2DB" mask="url(#path-85-inside-22_0_1)"/>
<path d="M154.517 200.307V207.19C154.517 208.458 153.49 209.485 152.222 209.485H132.446C131.178 209.485 130.151 208.458 130.151 207.19V200.307H154.517Z" fill="#F2F8F6"/>
<path d="M154.517 200.307V207.19C154.517 208.458 153.49 209.485 152.222 209.485H132.446C131.178 209.485 130.151 208.458 130.151 207.19V200.307H154.517Z" stroke="#CBE2DB" stroke-width="0.65567"/>
<mask id="path-88-inside-23_0_1" fill="white">
<path d="M156.157 172.32C156.157 170.938 157.277 169.817 158.659 169.817H178.677C180.059 169.817 181.179 170.938 181.179 172.32V199.978H156.157V172.32Z"/>
</mask>
<path d="M156.157 172.32C156.157 170.938 157.277 169.817 158.659 169.817H178.677C180.059 169.817 181.179 170.938 181.179 172.32V199.978H156.157V172.32Z" fill="#F2F8F6"/>
<path d="M155.501 172.32C155.501 170.576 156.915 169.162 158.659 169.162H178.677C180.421 169.162 181.835 170.576 181.835 172.32H180.524C180.524 171.3 179.697 170.473 178.677 170.473H158.659C157.639 170.473 156.812 171.3 156.812 172.32H155.501ZM181.179 199.978H156.157H181.179ZM155.501 199.978V172.32C155.501 170.576 156.915 169.162 158.659 169.162V170.473C157.639 170.473 156.812 171.3 156.812 172.32V199.978H155.501ZM178.677 169.162C180.421 169.162 181.835 170.576 181.835 172.32V199.978H180.524V172.32C180.524 171.3 179.697 170.473 178.677 170.473V169.162Z" fill="#CBE2DB" mask="url(#path-88-inside-23_0_1)"/>
<path d="M180.851 200.307V207.19C180.851 208.458 179.824 209.485 178.556 209.485H158.78C157.512 209.485 156.485 208.458 156.485 207.19V200.307H180.851Z" fill="#F2F8F6"/>
<path d="M180.851 200.307V207.19C180.851 208.458 179.824 209.485 178.556 209.485H158.78C157.512 209.485 156.485 208.458 156.485 207.19V200.307H180.851Z" stroke="#CBE2DB" stroke-width="0.65567"/>
<mask id="path-91-inside-24_0_1" fill="white">
<path d="M182.49 172.32C182.49 170.938 183.611 169.817 184.992 169.817H205.01C206.392 169.817 207.513 170.938 207.513 172.32V199.978H182.49V172.32Z"/>
</mask>
<path d="M182.49 172.32C182.49 170.938 183.611 169.817 184.992 169.817H205.01C206.392 169.817 207.513 170.938 207.513 172.32V199.978H182.49V172.32Z" fill="#F2F8F6"/>
<path d="M181.835 172.32C181.835 170.576 183.248 169.162 184.992 169.162H205.01C206.755 169.162 208.168 170.576 208.168 172.32H206.857C206.857 171.3 206.03 170.473 205.01 170.473H184.992C183.973 170.473 183.146 171.3 183.146 172.32H181.835ZM207.513 199.978H182.49H207.513ZM181.835 199.978V172.32C181.835 170.576 183.248 169.162 184.992 169.162V170.473C183.973 170.473 183.146 171.3 183.146 172.32V199.978H181.835ZM205.01 169.162C206.755 169.162 208.168 170.576 208.168 172.32V199.978H206.857V172.32C206.857 171.3 206.03 170.473 205.01 170.473V169.162Z" fill="#CBE2DB" mask="url(#path-91-inside-24_0_1)"/>
<path d="M207.185 200.307V207.19C207.185 208.458 206.157 209.485 204.89 209.485H185.113C183.846 209.485 182.818 208.458 182.818 207.19V200.307H207.185Z" fill="#F2F8F6"/>
<path d="M207.185 200.307V207.19C207.185 208.458 206.157 209.485 204.89 209.485H185.113C183.846 209.485 182.818 208.458 182.818 207.19V200.307H207.185Z" stroke="#CBE2DB" stroke-width="0.65567"/>
<g clip-path="url(#clip0_0_1)">
<rect y="236.041" width="222.928" height="204.569" rx="7.86804" fill="white"/>
<mask id="path-96-inside-25_0_1" fill="white">
<path d="M0 236.041H143.592V440.61H0V236.041Z"/>
</mask>
<path d="M0 236.041H143.592V440.61H0V236.041Z" fill="white"/>
<path d="M143.592 236.041H142.936V440.61H143.592H144.247V236.041H143.592Z" fill="#D8E9E4" mask="url(#path-96-inside-25_0_1)"/>
<rect x="15.7358" y="298.985" width="51.7979" height="10.4907" rx="2.62268" fill="#D8E9E4"/>
<rect x="15.7358" y="319.967" width="99.0062" height="5.24536" rx="1.31134" fill="#E5F0ED"/>
<rect x="15.7358" y="330.457" width="104.252" height="5.24536" rx="1.31134" fill="#E5F0ED"/>
<rect x="15.7358" y="340.948" width="76.7134" height="5.24536" rx="1.31134" fill="#E5F0ED"/>
<path d="M26.2261 357.013H68.8452C74.4578 357.013 79.008 361.562 79.0083 367.175C79.0083 372.788 74.458 377.338 68.8452 377.338H26.2271C20.6142 377.338 16.064 372.788 16.064 367.175C16.0642 361.562 20.6137 357.013 26.2261 357.013Z" fill="#F2F8F6"/>
<path d="M26.2261 357.013H68.8452C74.4578 357.013 79.008 361.562 79.0083 367.175C79.0083 372.788 74.458 377.338 68.8452 377.338H26.2271C20.6142 377.338 16.064 372.788 16.064 367.175C16.0642 361.562 20.6137 357.013 26.2261 357.013Z" stroke="#CBE2DB" stroke-width="0.65567"/>
<rect width="79.3361" height="204.569" transform="translate(143.592 236.041)" fill="#F2F8F6"/>
</g>
<rect x="0.327835" y="236.369" width="222.272" height="203.913" rx="7.54021" stroke="#CBE2DB" stroke-width="0.65567"/>
<rect x="233.747" y="236.369" width="198.668" height="203.913" rx="7.54021" fill="white"/>
<rect x="233.747" y="236.369" width="198.668" height="203.913" rx="7.54021" stroke="#CBE2DB" stroke-width="0.65567"/>
<rect x="255.651" y="273.938" width="67" height="11" rx="2.62268" fill="#D8E9E4"/>
<rect x="255.651" y="290.183" width="49" height="5" rx="1.31134" fill="#E5F0ED"/>
<circle cx="405.265" cy="279.183" r="4.91753" fill="#F2F8F6" stroke="#CBE2DB" stroke-width="0.65567"/>
<circle cx="333.081" cy="356.816" r="34.4227" stroke="#E5F0ED" stroke-width="4.58969"/>
<path d="M296.363 356.816C296.363 365.152 299.2 373.239 304.406 379.749C309.613 386.259 316.88 390.804 325.012 392.636C333.144 394.467 341.657 393.478 349.152 389.829C356.647 386.181 362.677 380.09 366.252 372.56C369.826 365.029 370.731 356.506 368.819 348.392C366.907 340.279 362.291 333.058 355.73 327.916C349.168 322.774 341.053 320.017 332.718 320.1C324.382 320.182 316.323 323.099 309.865 328.369" stroke="#E5F0ED" stroke-width="13.7691"/>
<rect x="443.56" y="236.369" width="192.111" height="106.219" rx="7.54021" fill="white"/>
<rect x="443.56" y="236.369" width="192.111" height="106.219" rx="7.54021" stroke="#CBE2DB" stroke-width="0.65567"/>
<circle cx="485.195" cy="289.478" r="25.899" fill="#F2F8F6" stroke="#CBE2DB" stroke-width="0.65567"/>
<rect x="532.403" y="273.742" width="81.3031" height="10.4907" rx="2.62268" fill="#D8E9E4"/>
<rect x="532.403" y="289.479" width="87.8598" height="5.24536" rx="1.31134" fill="#E5F0ED"/>
<rect x="532.403" y="299.969" width="68.1897" height="5.24536" rx="1.31134" fill="#E5F0ED"/>
<rect x="443.561" y="353.734" width="192.111" height="85.8928" rx="7.54021" fill="white"/>
<rect x="443.561" y="353.734" width="192.111" height="85.8928" rx="7.54021" stroke="#CBE2DB" stroke-width="0.65567"/>
<rect x="464.215" y="369.143" width="51.7979" height="10.4907" rx="2.62268" fill="#D8E9E4"/>
<rect x="464.215" y="391.436" width="87.2041" height="5.24536" rx="1.31134" fill="#E5F0ED"/>
<rect x="464.215" y="401.926" width="52.4536" height="5.24536" rx="1.31134" fill="#E5F0ED"/>
<rect x="464.215" y="418.974" width="150.804" height="5.24536" rx="1.31134" fill="#E5F0ED"/>
<defs>
<clipPath id="clip0_0_1">
<rect y="236.041" width="222.928" height="204.569" rx="7.86804" fill="white"/>
</clipPath>
</defs>
</svg>
