<svg xmlns="http://www.w3.org/2000/svg" width="353" height="112" fill="none"><path fill="#000" d="M163.504 68.7937v5.2124h-5.378v-17.01h11.183c2.227 0 3.979.5208 5.258 1.5646 1.255 1.0656 1.896 2.5103 1.896 4.3342 0 3.4234-1.83 4.5369-3.083 5.2843l2.201 5.8269h-6.207l-1.608-5.2124h-4.262Zm0-4.1686h5.52c.664 0 1.183-.1416 1.564-.4249.379-.2615.569-.6407.569-1.1375 0-.4968-.19-.9-.545-1.1833-.379-.2854-.9-.4249-1.586-.4249h-5.52v3.1706h-.002ZM143.618 57.0547h6.254l7.777 17.01h-5.655l-1.213-2.6999h-8.248l-1.253 2.6999h-5.439l7.777-17.01Zm3.031 5.2603-2.236 4.8311h4.439l-2.203-4.8311ZM126.011 69.1249v4.8812h-5.378v-17.01h10.945c2.251 0 4.006.5208 5.259 1.5885 1.255 1.0656 1.895 2.5583 1.895 4.4759 0 1.9198-.64 3.3885-1.895 4.4541-1.256 1.0656-3.008 1.6103-5.259 1.6103h-5.567Zm0-4.4519h5.284c.687 0 1.21-.1416 1.586-.4249.356-.2854.545-.6864.545-1.1854 0-.4968-.189-.9-.545-1.1833-.379-.2854-.899-.4249-1.586-.4249h-5.284v3.2185ZM195.777 61.4981h-6.639v12.508h-5.378v-12.508h-6.638v-4.502h18.655v4.502ZM216.245 56.9961v17.01h-4.761l-9.098-10.0696v10.0696h-5.258v-17.01h5.332l8.529 9.4769v-9.4769h5.256ZM217.781 56.9961h16.585v4.502h-11.3v1.752h9.949v4.3822h-9.949v1.8718h11.3v4.502h-16.585v-17.01ZM241.281 68.7937v5.2124h-5.378v-17.01h11.183c2.227 0 3.979.5208 5.259 1.5646 1.257 1.0656 1.895 2.5103 1.895 4.3342 0 3.4234-1.83 4.5369-3.083 5.2843l2.201 5.8269h-6.208l-1.609-5.2124h-4.26Zm0-4.1686h5.52c.665 0 1.183-.1416 1.565-.4249.379-.2615.568-.6407.568-1.1375 0-.4968-.189-.9-.544-1.1833-.38-.2854-.9-.4249-1.587-.4249h-5.52v3.1706h-.002ZM255.062 71.7171l1.967-4.088c.924.7104 2.038 1.2552 3.365 1.6343 1.303.4032 2.652.5927 4.051.5927 1.113 0 1.919-.0697 2.44-.2375.521-.1656.783-.4031.783-.7343 0-.3073-.238-.5448-.687-.7104-.449-.1656-1.989-.3792-4.572-.6407-2.488-.2593-4.312-.8062-5.447-1.6125-1.162-.8041-1.731-1.9176-1.731-3.3406 0-1.8239.783-3.2686 2.369-4.3124 1.563-1.0416 3.718-1.5646 6.466-1.5646 1.799 0 3.53.2136 5.188.6407 1.658.4511 2.183.7278 3.225 1.46l-2.159 4.1773c-.783-.5927-1.779-1.0416-2.986-1.3968-1.209-.3552-2.464-.5208-3.743-.5208-.97 0-1.707.0697-2.156.2375-.449.1656-.686.4031-.686.7104 0 .2615.237.475.71.6167.451.1416 1.92.3552 4.361.6167 2.724.2833 4.713.828 5.923 1.6583 1.209.828 1.799 1.9895 1.799 3.4342 0 1.9198-.828 3.3885-2.464 4.4061-1.634 1.0199-3.981 1.5407-6.988 1.5407-4.254 0-7.573-1.6605-9.028-2.567ZM288.102 56.9961h5.378v17.01h-5.378v-6.3237h-8.339v6.3237h-5.378v-17.01h5.378v6.1843h8.339v-6.1843ZM300.398 56.9961v17.01h-5.378v-17.01h5.378ZM307.313 69.1249v4.8812h-5.378v-17.01h10.945c2.251 0 4.005.5208 5.258 1.5885 1.258 1.0656 1.896 2.5583 1.896 4.4759 0 1.9198-.641 3.3885-1.896 4.4541-1.255 1.0656-3.007 1.6103-5.258 1.6103h-5.567Zm0-4.4519h5.284c.686 0 1.209-.1416 1.586-.4249.355-.2854.545-.6864.545-1.1854 0-.4968-.19-.9-.545-1.1833-.379-.2854-.9-.4249-1.586-.4249h-5.284v3.2185ZM137.009 42.4981h-6.918v12.5102h-5.378V42.4981h-6.919v-4.502h19.213v4.502h.002ZM152.083 37.9961h5.378v17.01h-5.378v-6.3237h-8.337v6.3237h-5.378v-17.01h5.378v6.1843h8.34v-6.1843h-.003ZM159 37.9961h16.585v4.502h-11.301v1.7542h9.95v4.3821h-9.95v1.8719h11.301v4.502H159V37.9961ZM208.407 37.9961h16.585v4.502h-11.3v1.7542h9.949v4.3821h-9.949v1.8719h11.3v4.502h-16.585V37.9961ZM245.467 37.9961v17.01h-4.762l-9.097-10.0696v10.0696h-5.258v-17.01h5.332l8.529 9.4769v-9.4769h5.256ZM246.827 37.9961h16.585v4.502h-11.301v1.7542h9.95v4.3821h-9.95v1.8719h11.301v4.502h-16.585V37.9961ZM270.326 49.7976V55.01h-5.378V38h11.183c2.227 0 3.979.5208 5.259 1.5646 1.257 1.0656 1.895 2.5103 1.895 4.3342 0 3.4234-1.83 4.5369-3.083 5.2843l2.201 5.8269h-6.208l-1.609-5.2124h-4.26Zm0-4.1708h5.52c.665 0 1.183-.1416 1.564-.4249.38-.2615.569-.6407.569-1.1375 0-.4968-.189-.8999-.545-1.1832-.379-.2855-.9-.425-1.586-.425h-5.52v3.1706h-.002ZM290.245 37.9961h6.254l7.777 17.01h-5.655l-1.213-2.6999h-8.248l-1.253 2.6999h-5.439l7.777-17.01Zm3.033 5.2603-2.235 4.8311h4.438l-2.203-4.8311ZM304.563 55.0061v-17.01h5.378v12.5102h10.094v4.502h-15.472v-.0022ZM201.918 55.0047v-1.1615c-.451.4249-1.137.7823-2.061 1.0416-.948.2593-1.968.4032-3.033.4032-7.536 0-10.353-4.4149-10.353-8.7905 0-2.5822.996-4.7156 2.959-6.3499 1.968-1.6343 4.526-2.4406 7.653-2.4406 2.297 0 4.286.4751 5.968 1.4448 1.683.9718 3.265 2.6824 3.356 4.9378l-5.417.0305c-.253-.8586-1.403-1.8174-3.859-1.8174-1.397 0-2.846.4032-3.77 1.1855-.924.8041-1.397 1.8478-1.397 3.127 0 2.6541 2.545 4.2187 4.897 4.2187 1.017 0 1.948-.2157 2.732-.499.783-.2615 1.351-.6407 1.706-1.1375h-5.733v-4.0509h11.299v9.856h-4.947v.0022ZM97.0298 37.9961H52.5327c-10.3246 0-18.5659 8.0605-18.5659 18.0058 0 9.9433 8.2435 18.0059 18.5659 18.0059h18.0037V51.4999H49.8807v9.0019h11.6538v4.502h-9.0018c-5.3955 0-9.3876-4.0313-9.3876-9.0019 0-4.9726 3.9921-9.0018 9.3876-9.0018h44.7172c1.4055 0 2.3904.9501 2.3904 2.251 0 1.2988-.9849 2.251-2.3904 2.251H75.0384l.0021 22.5057h9.0019V60.504h12.9808c6.6898 0 11.7738-5.0381 11.7738-11.2529-.002-6.2148-5.086-11.255-11.7672-11.255Z"/></svg>