<svg width="14" height="15" viewBox="0 0 14 15" fill="none" xmlns="http://www.w3.org/2000/svg">
<path d="M6 13.7467V7.31699C6 6.90278 6.33579 6.56699 6.75 6.56699C7.16421 6.56699 7.5 6.90278 7.5 7.31699V13.7467C7.5 14.1609 7.16421 14.4967 6.75 14.4967C6.33579 14.4967 6 14.1609 6 13.7467Z" fill="#7FFFC3"/>
<path d="M12.3465 3.39816C12.7097 3.19963 13.1652 3.33297 13.3641 3.69601C13.5629 4.05936 13.4296 4.5157 13.0662 4.71457L7.11016 7.97433C6.8858 8.09713 6.61381 8.09713 6.38945 7.97433L0.433399 4.71457C0.070107 4.51568 -0.0633093 4.05934 0.135547 3.69601C0.33444 3.33272 0.790777 3.19931 1.1541 3.39816L6.7498 6.46164L12.3465 3.39816Z" fill="#7FFFC3"/>
<path d="M6.75 0C6.9597 0 7.16662 0.0526633 7.35059 0.15332L12.8506 3.16504C12.9979 3.24562 13.1259 3.35464 13.2295 3.48535L13.3242 3.62305L13.4004 3.77148C13.4657 3.92492 13.4996 4.09091 13.5 4.25879V10.2373L13.4893 10.4043C13.467 10.57 13.411 10.7302 13.3252 10.875C13.2109 11.0678 13.0471 11.2263 12.8506 11.334L7.35059 14.3457C7.16671 14.4462 6.95956 14.499 6.75 14.499C6.54044 14.499 6.33427 14.4462 6.15039 14.3457L0.649414 11.334L0.650391 11.333C0.454166 11.2256 0.29007 11.0683 0.175781 10.876C0.0614857 10.6836 0.000507919 10.464 0 10.2402V4.25879L0.0117188 4.0918C0.03432 3.92664 0.0900653 3.76732 0.175781 3.62305L0.270508 3.48535C0.373907 3.35482 0.502396 3.24559 0.649414 3.16504L6.15039 0.15332C6.33427 0.0527843 6.54043 0 6.75 0ZM1.5 4.40918V10.0889L6.75 12.9629L12 10.0889V4.40918L6.75 1.53418L1.5 4.40918Z" fill="#7FFFC3"/>
<path d="M3.1893 1.90789C3.38819 1.5446 3.84453 1.41118 4.20785 1.61004L10.1102 4.84051C10.4735 5.03938 10.6069 5.49571 10.408 5.85906C10.2092 6.2224 9.75283 6.35578 9.38949 6.15691L3.48715 2.92644C3.12386 2.72755 2.99044 2.27121 3.1893 1.90789Z" fill="#7FFFC3"/>
</svg>
