<svg xmlns="http://www.w3.org/2000/svg" xmlns:xlink="http://www.w3.org/1999/xlink" fill="none" viewBox="0 0 16 16">
  <g stroke="#fff" stroke-linecap="round" stroke-linejoin="round" stroke-width="1.5" clip-path="url(#a)">
    <path d="M10 2.5h2.5c.1326 0 .2598.05268.3536.14645C12.9473 2.74021 13 2.86739 13 3v10.5c0 .1326-.0527.2598-.1464.3536-.0938.0937-.221.1464-.3536.1464h-9c-.13261 0-.25979-.0527-.35355-.1464C3.05268 13.7598 3 13.6326 3 13.5V3c0-.13261.05268-.25979.14645-.35355C3.24021 2.55268 3.36739 2.5 3.5 2.5H6"/>
    <path d="M5.5 4.5V4c0-.66304.26339-1.29893.73223-1.76777S7.33696 1.5 8 1.5s1.29893.26339 1.76777.73223C10.2366 2.70107 10.5 3.33696 10.5 4v.5z"/>
  </g>
  <defs>
      <path fill="#fff" d="M0 0h16v16H0z"/>
  </defs>
</svg>
