<svg width="75" height="21" viewBox="0 0 75 21" fill="none" xmlns="http://www.w3.org/2000/svg">
<path d="M7.56748 18.2026C7.17166 18.4905 6.75807 18.6345 6.32671 18.6345C5.67907 18.6345 5.17537 18.4274 4.81572 18.0139C4.47383 17.6003 4.30287 17.0157 4.30287 16.2602V6.95283L8.9207 6.31842L8.75893 4.99675L4.30346 6.11704V2.50195H3.54798V2.72797C3.54395 4.72598 2.0955 6.42797 0.123329 6.7515L0 6.77158V7.52705L2.03699 7.24885V16.4771C2.03699 17.5922 2.34275 18.4642 2.95423 19.094C3.58352 19.7233 4.44687 20.0382 5.54422 20.0382C6.40757 20.0382 7.16305 19.7864 7.81015 19.2827C8.47556 18.7613 8.96144 18.0689 9.2672 17.2056L8.56562 16.909C8.29603 17.4666 7.9633 17.898 7.56748 18.2037V18.2026Z" fill="#0F1A17"/>
<path d="M43.8169 17.2842V10.2703C43.8169 8.86772 43.4031 7.76116 42.5759 6.95175C41.7664 6.12453 40.6605 5.71094 39.2577 5.71094C38.2687 5.71094 37.3423 5.97196 36.4788 6.49338C35.6331 7.01484 34.9052 7.74335 34.2937 8.6784C34.0059 7.74335 33.4842 7.01484 32.7291 6.49338C31.9736 5.97196 31.0476 5.71094 29.9503 5.71094C29.0329 5.71094 28.1604 5.95361 27.3332 6.43949C26.5237 6.90701 25.8221 7.56382 25.2291 8.40881V6.11596H24.5275L20.9933 7.30279V8.00437C21.7305 7.87873 22.2433 7.92347 22.5313 8.13917C22.8192 8.35487 22.9626 8.80458 22.9626 9.48781V17.2573C22.9626 17.7787 22.8186 18.1653 22.5313 18.4172C22.4423 18.4946 22.3322 18.5646 22.2002 18.6271C21.6725 18.8766 21.0541 18.8766 20.5264 18.6271C20.3944 18.5646 20.2843 18.4946 20.1954 18.4172C19.9074 18.1653 19.764 17.7787 19.764 17.2573V11.1606C19.764 10.0098 19.5213 9.02949 19.0354 8.22007C18.5502 7.39285 17.8664 6.77217 16.9853 6.35858C16.1042 5.92723 15.079 5.71094 13.91 5.71094C12.7409 5.71094 11.6257 5.98058 10.6723 6.52035C9.73728 7.06017 9.01793 7.76116 8.51428 8.62446L9.62025 10.9718L10.2949 10.7831C10.2232 9.97369 10.3218 9.24514 10.5914 8.59808C10.861 7.95103 11.266 7.44679 11.8053 7.08714C12.3629 6.72744 13.0105 6.54732 13.7476 6.54732C14.4847 6.54732 15.1054 6.72744 15.663 7.08714C16.2384 7.42902 16.6881 7.92347 17.0122 8.57112C17.3358 9.20041 17.4975 9.93811 17.4975 10.7831V11.0671L16.3376 11.2954C14.7549 11.6189 13.4688 12.0055 12.4798 12.4553C11.4909 12.905 10.7624 13.4534 10.2949 14.1011C9.82734 14.7304 9.59328 15.495 9.59328 16.3939C9.59328 17.0771 9.76425 17.6978 10.1061 18.2554C10.448 18.8129 10.9063 19.2535 11.4817 19.5771C12.0571 19.8828 12.7139 20.0354 13.4511 20.0354C14.2966 20.0354 15.0699 19.8013 15.7709 19.3338C16.4902 18.848 17.0656 18.1825 17.4975 17.3376V19.6304H27.1709V18.9288C26.434 18.8388 25.9209 18.6678 25.6329 18.4166C25.3633 18.1647 25.2285 17.7781 25.2285 17.2567V9.40636C25.7142 8.70478 26.2984 8.14719 26.9819 7.7336C27.6836 7.30166 28.3938 7.08596 29.1131 7.08596C30.0482 7.08596 30.8037 7.40092 31.3793 8.03016C31.9545 8.64169 32.2423 9.44194 32.2423 10.4315V17.2567C32.2423 17.7781 32.0987 18.1647 31.8113 18.4166C31.5416 18.6684 31.0471 18.8394 30.3269 18.9288V19.6304H36.4784V18.9288C35.741 18.8388 35.2283 18.6678 34.9405 18.4166C34.6523 18.1647 34.509 17.7873 34.509 17.2836V10.2697C34.509 9.91001 34.5 9.64899 34.4818 9.48722C34.9677 8.76787 35.561 8.19252 36.2626 7.76057C36.9643 7.31086 37.6836 7.08596 38.4206 7.08596C39.3556 7.08596 40.1112 7.40092 40.6863 8.03016C41.262 8.64169 41.5498 9.44194 41.5498 10.4315V17.2567C41.5498 17.7781 41.4056 18.1647 41.1183 18.4166C40.8486 18.6684 40.3537 18.8394 39.6344 18.9288V19.6304H45.7854V18.9288C45.0484 18.8388 44.5358 18.6678 44.2475 18.4166C43.9597 18.1647 43.8156 17.7873 43.8156 17.2836L43.8169 17.2842ZM16.2034 17.9318C15.6997 18.3093 15.106 18.4986 14.4228 18.4986C13.7034 18.4986 13.1011 18.2738 12.6152 17.824C12.1477 17.3565 11.9137 16.7719 11.9137 16.0704C11.9137 15.0992 12.2642 14.299 12.9657 13.6697C13.6673 13.022 14.8094 12.5006 16.3921 12.1048L17.4981 11.8283V16.3406C17.1384 17.0238 16.7065 17.5538 16.2034 17.9318Z" fill="#0F1A17"/>
<path d="M56.6488 6.64108H56.6506C55.7328 6.01121 54.6708 5.69629 53.4652 5.69629C52.2595 5.69629 51.3145 5.99344 50.4683 6.58715C49.6402 7.16309 49.0378 7.93638 48.6594 8.9081V0H47.9577L44.4482 1.18744V1.88901C45.168 1.76338 45.6716 1.80755 45.9598 2.02381C46.2476 2.2395 46.3918 2.68924 46.3918 3.37302V19.6237H47.0929L48.2265 18.1931C48.7124 18.6968 49.351 19.1287 50.1433 19.489C50.9533 19.8486 51.7986 20.0288 52.681 20.0288C53.995 20.0288 55.1825 19.7224 56.244 19.1109C57.3055 18.4817 58.1327 17.6172 58.7274 16.5198C59.3216 15.4224 59.618 14.1719 59.618 12.767C59.618 11.4528 59.3569 10.2561 58.8352 9.17715C58.3131 8.09755 57.5838 7.25143 56.6483 6.63991L56.6488 6.64108ZM56.5699 16.2513C56.1742 17.1691 55.6154 17.8885 54.8956 18.4111C54.1944 18.9331 53.3931 19.1941 52.4934 19.1941C51.5942 19.1941 50.7656 18.9239 50.1179 18.3841C49.4702 17.826 48.9843 17.1422 48.6603 16.3322V10.0967C48.9481 9.25057 49.4249 8.54899 50.0912 7.99145C50.7747 7.43327 51.5756 7.15507 52.4934 7.15507C53.4112 7.15507 54.2484 7.41605 54.9496 7.9381C55.6698 8.46011 56.2186 9.17084 56.5962 10.0703C56.9919 10.9698 57.1904 11.9868 57.1904 13.1204C57.1904 14.2539 56.9833 15.3157 56.5699 16.2513Z" fill="#0F1A17"/>
<path d="M73.335 9.15092C72.7585 8.05352 71.949 7.20739 70.9051 6.61314C69.8613 6.00162 68.6557 5.69531 67.2882 5.69531C65.9208 5.69531 64.7056 6.00162 63.6441 6.61314C62.5998 7.20739 61.7813 8.05297 61.1875 9.15092C60.611 10.2311 60.3236 11.4633 60.3236 12.8492C60.3236 14.2351 60.6119 15.4765 61.1875 16.5744C61.7813 17.6546 62.5998 18.5002 63.6441 19.1122C64.7056 19.7238 65.9208 20.0301 67.2882 20.0301C68.6557 20.0301 69.8613 19.7238 70.9051 19.1122C71.949 18.5007 72.7585 17.6546 73.335 16.5744C73.9288 15.477 74.2252 14.2351 74.2252 12.8492C74.2252 11.4633 73.9283 10.2311 73.335 9.15092ZM71.2025 16.1425C70.8249 17.0965 70.2937 17.8433 69.6098 18.3831C68.9267 18.9229 68.1521 19.1931 67.2887 19.1931C66.4257 19.1931 65.6244 18.9229 64.9404 18.3831C64.2574 17.8428 63.7261 17.0965 63.3486 16.1425C62.9706 15.1707 62.7811 14.0728 62.7811 12.8498C62.7811 11.6267 62.9701 10.5546 63.3486 9.58287C63.7261 8.6111 64.2574 7.86424 64.9404 7.34224C65.6244 6.80183 66.4071 6.53224 67.2887 6.53224C68.1707 6.53224 68.9267 6.80242 69.6098 7.34224C70.2937 7.86424 70.8249 8.6111 71.2025 9.58287C71.5805 10.5368 71.7695 11.6256 71.7695 12.8498C71.7695 14.0739 71.5809 15.1707 71.2025 16.1425Z" fill="#0F1A17"/>
</svg>
