<svg width="61" height="12" viewBox="0 0 61 12" fill="none" xmlns="http://www.w3.org/2000/svg">
<path d="M6.98823 2.3009L3.49318 4.53149L6.98823 6.76208L3.49318 8.99267L0 6.74443L3.49506 4.51384L0 2.3009L3.49506 0.0703125L6.98823 2.3009ZM3.47647 9.70043L6.97153 7.46984L10.4666 9.70043L6.97176 11.9291L3.47671 9.69855L3.47647 9.70043ZM6.98823 6.74443L10.4833 4.51384L6.98823 2.3009L10.4668 0.0703125L13.9619 2.3009L10.4668 4.53149L13.9619 6.76208L10.4668 8.99267L6.99035 6.74325L6.98823 6.74443Z" fill="black"/>
<path d="M16.6953 2.29771H19.5188C21.3221 2.29771 22.8094 3.33889 22.8094 5.71842V6.2203C22.8094 8.61865 21.4151 9.69677 19.5746 9.69677H16.6953V2.29771ZM18.2755 3.63889V8.34477H19.484C20.5066 8.34477 21.1946 7.6756 21.1946 6.1883V5.79771C21.1946 4.31065 20.4699 3.64124 19.4285 3.64124H18.2755V3.63889ZM23.6485 3.71324H24.9127L25.1174 5.1076C25.3591 4.15936 25.9727 3.65748 27.088 3.65748H27.4786V5.2563H26.828C25.5452 5.2563 25.2292 5.70242 25.2292 6.96689V9.71842H23.6675V3.71371H23.6487L23.6485 3.71324ZM27.7944 6.83654V6.67183C27.7944 4.66407 29.0772 3.56712 30.825 3.56712C32.6097 3.56712 33.8555 4.66407 33.8555 6.67183V6.83654C33.8555 8.80713 32.6471 9.86713 30.825 9.86713C28.8915 9.8483 27.7944 8.80736 27.7944 6.83654ZM32.2563 6.81771V6.66901C32.2563 5.55371 31.6986 4.8843 30.8061 4.8843C29.9323 4.8843 29.356 5.49771 29.356 6.66901V6.81771C29.356 7.89607 29.9137 8.51183 30.8061 8.51183C31.6986 8.49301 32.2563 7.89842 32.2563 6.81771ZM34.6732 3.71301H35.9744L36.1231 4.84712C36.4391 4.08477 37.1085 3.5643 38.0937 3.5643C39.6184 3.5643 40.6221 4.66124 40.6221 6.68759V6.8523C40.6221 8.82289 39.5068 9.86407 38.0937 9.86407C37.1454 9.86407 36.4948 9.43654 36.1788 8.74877V11.7794H34.6541L34.673 3.70877L34.6732 3.71301ZM39.0421 6.81771V6.68759C39.0421 5.49771 38.4287 4.90289 37.6106 4.90289C36.7367 4.90289 36.1605 5.57207 36.1605 6.68759V6.79912C36.1605 7.85889 36.7181 8.52807 37.592 8.52807C38.4845 8.50924 39.0421 7.93348 39.0421 6.81771ZM42.9278 8.60242L42.7977 9.69936H41.4565V1.70312H42.9812V4.77301C43.3158 3.99183 43.9852 3.56454 44.9332 3.56454C46.3647 3.58336 47.4245 4.56854 47.4245 6.55748V6.74571C47.4245 8.73489 46.4205 9.86901 44.896 9.86901C43.892 9.85018 43.2414 9.38571 42.9254 8.60477L42.9278 8.60242ZM45.828 6.7436V6.59489C45.828 5.49795 45.2332 4.8843 44.3965 4.8843C43.5412 4.8843 42.9464 5.57207 42.9464 6.61324V6.74336C42.9464 7.85865 43.5228 8.50948 44.3779 8.50948C45.289 8.50948 45.828 7.93324 45.828 6.7436ZM48.0963 6.83654V6.67183C48.0963 4.66407 49.3791 3.56712 51.1268 3.56712C52.9115 3.56712 54.1574 4.66407 54.1574 6.67183V6.83654C54.1574 8.80713 52.9304 9.86713 51.1268 9.86713C49.1934 9.8483 48.0963 8.80736 48.0963 6.83654ZM52.5767 6.81771V6.66901C52.5767 5.55371 52.0191 4.8843 51.1266 4.8843C50.2527 4.8843 49.6765 5.49771 49.6765 6.66901V6.81771C49.6765 7.89607 50.2341 8.51183 51.1266 8.51183C52.0191 8.49301 52.5767 7.89842 52.5767 6.81771ZM56.2019 6.59465L54.1012 3.71301H55.9045L57.113 5.5163L58.34 3.71301H60.1247L57.9868 6.57607L60.2358 9.69724H58.4697L57.0939 7.70807L55.7527 9.69724H53.9123L56.1993 6.59254L56.2019 6.59465Z" fill="black"/>
</svg>
