<svg width="67" height="12" viewBox="0 0 67 12" fill="none" xmlns="http://www.w3.org/2000/svg">
<path d="M55.8539 5.39348V4.41119H54.6341V2.88407L54.593 2.8967L53.4473 3.24722L53.4248 3.25411V4.41119H51.6164V3.76667C51.6164 3.46652 51.6835 3.23682 51.8158 3.08364C51.9471 2.93229 52.135 2.85536 52.3746 2.85536C52.5469 2.85536 52.7253 2.89595 52.9047 2.97599L52.9497 2.99605V1.96155L52.9285 1.95378C52.7611 1.89361 52.5333 1.86328 52.2511 1.86328C51.8953 1.86328 51.572 1.94068 51.2901 2.09413C51.0079 2.24778 50.786 2.46715 50.6306 2.74608C50.4757 3.02468 50.397 3.34644 50.397 3.7025V4.41119H49.5477V5.39348H50.397V9.53166H51.6164V5.39348H53.4248V8.02325C53.4248 9.1063 53.9356 9.65519 54.9431 9.65519C55.1087 9.65519 55.2829 9.63574 55.4609 9.59772C55.6419 9.55875 55.7653 9.51978 55.8379 9.47817L55.8539 9.46872V8.47731L55.8044 8.51014C55.7382 8.55431 55.6558 8.59031 55.5591 8.61705C55.4621 8.64434 55.381 8.65805 55.3183 8.65805C55.0822 8.65805 54.9076 8.59443 54.7992 8.46894C54.6897 8.3423 54.6341 8.12077 54.6341 7.81097V5.39348H55.8539ZM46.8247 8.65814C46.3821 8.65814 46.0332 8.51138 45.7873 8.22231C45.5399 7.93176 45.4145 7.51754 45.4145 6.99128C45.4145 6.44833 45.5399 6.02338 45.7874 5.72769C46.0335 5.43396 46.3791 5.2849 46.8148 5.2849C47.2375 5.2849 47.5741 5.42728 47.8151 5.70831C48.0575 5.99075 48.1804 6.41233 48.1804 6.96163C48.1804 7.51768 48.0648 7.94479 47.8368 8.23048C47.6104 8.51408 47.2699 8.65814 46.8247 8.65814ZM46.879 4.28783C46.0346 4.28783 45.3639 4.53522 44.8858 5.02319C44.408 5.51123 44.1657 6.18655 44.1657 7.03065C44.1657 7.83234 44.4022 8.4772 44.8687 8.94701C45.3352 9.41701 45.97 9.65508 46.7555 9.65508C47.574 9.65508 48.2312 9.40425 48.7092 8.90952C49.1871 8.41527 49.4293 7.74636 49.4293 6.92198C49.4293 6.10773 49.2021 5.45807 48.7537 4.99138C48.3052 4.52448 47.6743 4.28783 46.879 4.28783ZM42.1997 4.2878C41.6254 4.2878 41.1503 4.4347 40.7873 4.72437C40.4222 5.01573 40.237 5.39794 40.237 5.86038C40.237 6.10075 40.277 6.31431 40.3557 6.49538C40.4348 6.67713 40.5574 6.83706 40.7201 6.97133C40.8816 7.10451 41.1308 7.24405 41.4612 7.38595C41.7389 7.50022 41.946 7.59694 42.0776 7.67312C42.2062 7.74776 42.2975 7.82286 42.349 7.89594C42.3991 7.96746 42.4245 8.06532 42.4245 8.18622C42.4245 8.53019 42.167 8.69756 41.6368 8.69756C41.4402 8.69756 41.2159 8.65656 40.9702 8.57558C40.7244 8.49474 40.4947 8.3785 40.2876 8.22944L40.237 8.19318V9.36707L40.2556 9.37572C40.4282 9.45535 40.6456 9.52248 40.902 9.57536C41.1579 9.62824 41.3904 9.65519 41.5924 9.65519C42.2156 9.65519 42.7175 9.50755 43.0837 9.21619C43.4523 8.9228 43.6391 8.53161 43.6391 8.0531C43.6391 7.70797 43.5385 7.41195 43.3403 7.17327C43.1435 6.93648 42.8019 6.71914 42.3253 6.52699C41.9457 6.37462 41.7025 6.24812 41.6022 6.15107C41.5055 6.05725 41.4564 5.92461 41.4564 5.75664C41.4564 5.60771 41.517 5.48844 41.6414 5.39179C41.7669 5.29467 41.9414 5.2453 42.1603 5.2453C42.3635 5.2453 42.5714 5.27738 42.778 5.34026C42.9846 5.40314 43.1661 5.48736 43.3175 5.59042L43.3673 5.62446V4.51088L43.3482 4.50264C43.2085 4.44273 43.0242 4.39147 42.8005 4.34987C42.5776 4.30867 42.3754 4.2878 42.1997 4.2878ZM37.0582 8.65814C36.6158 8.65814 36.2667 8.51138 36.0209 8.22231C35.7734 7.93176 35.6483 7.51768 35.6483 6.99128C35.6483 6.44833 35.7736 6.02338 36.0212 5.72769C36.267 5.43396 36.6125 5.2849 37.0484 5.2849C37.4711 5.2849 37.8076 5.42728 38.0488 5.70831C38.2911 5.99075 38.414 6.41233 38.414 6.96163C38.414 7.51768 38.2983 7.94479 38.0703 8.23048C37.8439 8.51408 37.5036 8.65814 37.0582 8.65814ZM37.1127 4.28783C36.2681 4.28783 35.5974 4.53522 35.1195 5.02319C34.6417 5.51123 34.3992 6.18655 34.3992 7.03065C34.3992 7.83268 34.6359 8.4772 35.1024 8.94701C35.5689 9.41701 36.2037 9.65508 36.9891 9.65508C37.8074 9.65508 38.4649 9.40425 38.9429 8.90952C39.4207 8.41527 39.6629 7.74636 39.6629 6.92198C39.6629 6.10773 39.4357 5.45807 38.9873 4.99138C38.5386 4.52448 37.9079 4.28783 37.1127 4.28783ZM32.5483 5.29791V4.41119H31.3438V9.53153H32.5483V6.9123C32.5483 6.46688 32.6493 6.10102 32.8485 5.82465C33.0452 5.55159 33.3074 5.4132 33.6275 5.4132C33.736 5.4132 33.8577 5.4311 33.9896 5.46649C34.1202 5.50168 34.2147 5.53984 34.2705 5.58002L34.3211 5.6167V4.40241L34.3016 4.39404C34.1894 4.34635 34.0308 4.32231 33.83 4.32231C33.5273 4.32231 33.2564 4.41957 33.0244 4.61104C32.8208 4.77935 32.6736 5.01013 32.561 5.29791H32.5483ZM29.1868 4.2878C28.6343 4.2878 28.1414 4.40633 27.7221 4.63988C27.302 4.87397 26.9772 5.20822 26.7561 5.63324C26.5361 6.05725 26.4243 6.55252 26.4243 7.10478C26.4243 7.58857 26.5327 8.03257 26.7468 8.42382C26.961 8.81575 27.2643 9.12238 27.6481 9.33506C28.0314 9.54747 28.4744 9.65519 28.9648 9.65519C29.5372 9.65519 30.0259 9.54071 30.4178 9.31507L30.4336 9.30595V8.2025L30.383 8.23944C30.2055 8.36871 30.0072 8.47191 29.7937 8.54627C29.5809 8.62056 29.3867 8.65811 29.2166 8.65811C28.744 8.65811 28.3646 8.5102 28.0892 8.2187C27.8132 7.92673 27.6732 7.51684 27.6732 7.00098C27.6732 6.48187 27.8192 6.06144 28.1068 5.75117C28.3935 5.44184 28.7736 5.28494 29.2365 5.28494C29.6324 5.28494 30.0182 5.41901 30.3832 5.68376L30.4336 5.72044V4.55775L30.4173 4.54857C30.28 4.47171 30.0927 4.40822 29.8601 4.36006C29.6285 4.31204 29.4021 4.2878 29.1868 4.2878ZM25.5948 4.41121H24.3903V9.53154H25.5948V4.41121ZM25.0048 2.2299C24.8066 2.2299 24.6337 2.29737 24.4917 2.4311C24.349 2.56523 24.2766 2.73408 24.2766 2.93332C24.2766 3.12945 24.3482 3.29519 24.4894 3.42574C24.6297 3.55589 24.8032 3.62188 25.0048 3.62188C25.2064 3.62188 25.3806 3.55589 25.5226 3.42595C25.6656 3.29519 25.738 3.12945 25.738 2.93332C25.738 2.74103 25.6675 2.57387 25.5285 2.4365C25.3896 2.29939 25.2134 2.2299 25.0048 2.2299ZM21.9996 4.03343V9.53152H23.2288V2.3867H21.5276L19.3651 7.69364L17.2666 2.3867H15.4961V9.53152H16.6512V4.03289H16.6909L18.9069 9.53152H19.7786L21.96 4.03343H21.9996Z" fill="black"/>
<path d="M5.66612 5.66612H0V0H5.66612V5.66612Z" fill="black"/>
<path d="M11.9219 5.66612H6.25586V0H11.9219V5.66612Z" fill="black"/>
<path d="M5.66599 11.9239H0V6.25781H5.66599V11.9239Z" fill="black"/>
<path d="M11.9219 11.9239H6.25586V6.25781H11.9219V11.9239Z" fill="black"/>
<path d="M66.5456 9.53117H65.335V2.44531H66.5456V9.53117Z" fill="black"/>
<path d="M64.6652 9.53117H63.3755L62.7381 7.72759H59.9512L59.3385 9.53117H58.0537L60.7072 2.44531H62.0315L64.6652 9.53117ZM62.4268 6.76897L61.4435 3.94253C61.4138 3.85359 61.3792 3.70535 61.3496 3.49781H61.3298C61.3002 3.68558 61.2656 3.83382 61.231 3.94253L60.2575 6.76897H62.4268Z" fill="black"/>
</svg>
