<svg  viewBox="0 0 39 18" fill="none" xmlns="http://www.w3.org/2000/svg">
<path d="M38.7 0H0V18H38.7V0Z" fill="none"/>
<path d="M25.2566 11.0936H24.3331L22.9131 7.02734H23.7822L24.2169 8.33889C24.4186 8.92867 24.6358 9.61921 24.8144 10.2091C24.9853 9.61921 25.2102 8.93641 25.4042 8.34663L25.8543 7.02734H26.6849L25.2566 11.0936Z" fill="black"/>
<path d="M26.8682 10.3054L27.4113 9.87069C27.838 10.3363 28.2805 10.5303 28.7383 10.5303C29.1962 10.5303 29.5221 10.2896 29.5221 9.94822C29.5221 9.64546 29.2972 9.49034 28.8625 9.40507L28.3116 9.28858C27.4193 9.1023 27.0699 8.75317 27.0699 8.20227C27.0699 7.44969 27.7527 6.92969 28.6299 6.92969C29.3049 6.92969 29.8094 7.1546 30.2207 7.63596L29.6853 8.03947C29.3439 7.6746 29.0101 7.58159 28.6221 7.58159C28.1874 7.58159 27.8849 7.79876 27.8849 8.10159C27.8849 8.3265 28.0558 8.4584 28.5214 8.55941L29.0957 8.68363C29.996 8.86991 30.3297 9.24227 30.3297 9.84779C30.3297 10.6625 29.6391 11.1825 28.7466 11.1825C28.0094 11.1825 27.4042 10.9032 26.8687 10.3057L26.8682 10.3054Z" fill="black"/>
<path d="M32.6873 11.1822C31.5776 11.1822 30.8018 10.2896 30.8018 9.05593C30.8018 7.82224 31.5778 6.92969 32.6873 6.92969C33.4866 6.92969 34.1153 7.3332 34.3712 8.18686L33.533 8.3265C33.401 7.86087 33.114 7.57385 32.687 7.57385C32.0351 7.57385 31.7015 8.21801 31.7015 9.05593C31.7015 9.89385 32.0351 10.5303 32.687 10.5303C33.1993 10.5303 33.5018 10.1735 33.6572 9.51381L34.4098 9.6303C34.1926 10.6159 33.6109 11.1822 32.6873 11.1822Z" fill="black"/>
<path d="M36.8221 11.1822C35.7123 11.1822 34.9365 10.2896 34.9365 9.05593C34.9365 7.82224 35.7127 6.92969 36.8221 6.92969C37.9316 6.92969 38.7 7.81424 38.7 9.05593C38.7 10.2977 37.9316 11.1822 36.8221 11.1822ZM36.8221 10.5303C37.4663 10.5303 37.8 9.88611 37.8 9.05593C37.8 8.22575 37.4663 7.57385 36.8221 7.57385C36.178 7.57385 35.8366 8.21801 35.8366 9.05593C35.8366 9.89385 36.1702 10.5303 36.8221 10.5303Z" fill="black"/>
<path d="M17.9983 8.71394C17.85 3.97093 14.0322 0.153102 9.28915 0.00486494V0H9.00297H8.71684V0.00486494C3.9738 0.153102 0.155964 3.97093 0.00772664 8.71394H0V9.28631H0.00772664C0.0386333 10.2779 0.229797 11.2291 0.556606 12.1152L0.54888 12.1182L0.767517 12.6471L0.772097 12.6452C2.13456 15.7172 5.16628 17.8841 8.71684 17.9951V18H9.00213C9.00213 18 9.00271 18 9.00297 18C9.00329 18 9.00355 18 9.00387 18H9.28915V17.9951C14.0322 17.8469 17.85 14.0293 17.9983 9.28599H18.0032V8.71368L17.9983 8.71394ZM15.4187 8.71394C15.3818 8.04888 15.2436 7.41072 15.0195 6.81461L16.8767 5.98931C17.2105 6.86041 17.3945 7.77444 17.4256 8.71394H15.4187ZM11.7248 14.8981C12.3341 14.6128 12.891 14.2348 13.3777 13.7823L14.7548 15.1594C14.0496 15.8188 13.2467 16.3465 12.363 16.7311L11.7248 14.8981ZM5.36574 16.6049C4.59021 16.2337 3.88079 15.7484 3.24978 15.158L4.62685 13.7809C5.06726 14.1908 5.5652 14.5396 6.1075 14.8138L5.36574 16.6049ZM6.15958 3.31216C5.62959 3.57401 5.14081 3.90683 4.70583 4.29832L3.24978 2.84227C3.88079 2.25189 4.59021 1.76654 5.36574 1.39538L6.15958 3.31216ZM12.3406 1.25945C13.2332 1.64463 14.044 2.17577 14.7548 2.84084L13.2987 4.29688C12.7836 3.83357 12.1935 3.45268 11.5485 3.17423L12.3406 1.25945ZM13.7068 4.69838L15.1597 3.24549C15.7758 3.90369 16.2772 4.64716 16.6541 5.46218L14.7945 6.28836C14.5127 5.70371 14.1444 5.16828 13.7068 4.69838ZM11.2815 3.68219C11.8736 3.93259 12.4142 4.27542 12.8935 4.70239L11.7182 5.87771C11.0588 5.30421 10.2161 4.93591 9.28948 4.87267V3.22918C9.97885 3.26208 10.6477 3.41432 11.2815 3.68219ZM11.5247 11.523C10.8511 12.1967 9.9557 12.5676 9.00297 12.5676C8.0503 12.5676 7.15491 12.1967 6.48121 11.523C5.80759 10.8494 5.43671 9.95395 5.43671 9.00129C5.43671 8.04862 5.80759 7.15317 6.48121 6.47954C7.15491 5.80587 8.0503 5.43499 9.00297 5.43499C9.9557 5.43499 10.8511 5.80587 11.5247 6.47954C12.1984 7.15317 12.5693 8.04862 12.5693 9.00129C12.5693 9.95395 12.1984 10.8494 11.5247 11.523ZM8.71684 4.87267C7.78959 4.93591 6.94626 5.3045 6.28664 5.87885L5.11133 4.70354C5.59067 4.27571 6.13211 3.93259 6.72476 3.6819C7.35867 3.41376 8.0274 3.26179 8.71684 3.22918V4.87267ZM5.88171 6.28349C5.30708 6.9431 4.93791 7.7865 4.87438 8.71394H3.16049C3.20056 8.05146 3.35051 7.40814 3.60893 6.79778C3.87363 6.17189 4.24108 5.60355 4.70268 5.10475L5.88171 6.28349ZM4.87438 9.28631C4.93763 10.2141 5.30622 11.0577 5.88085 11.7176L4.63085 12.9676C4.20302 12.4883 3.8599 11.9469 3.60921 11.3542C3.33134 10.6971 3.17852 10.0023 3.15362 9.28631H4.87438ZM5.03178 13.376L6.2855 12.1223C6.94542 12.6972 7.78908 13.0663 8.71684 13.1296V14.9225C8.0274 14.8896 7.35867 14.7376 6.72476 14.4698C6.09891 14.205 5.53057 13.8376 5.03178 13.376ZM9.28915 13.1296C10.2163 13.0663 11.0594 12.6978 11.7191 12.1237L12.9728 13.3774C12.4743 13.8381 11.9065 14.2053 11.2812 14.4698C10.6473 14.7379 9.97827 14.8899 9.28915 14.9225V13.1296ZM12.124 11.7191C12.6995 11.0588 13.0687 10.2147 13.1316 9.28631H14.8527C14.8275 10.0023 14.675 10.6971 14.3971 11.3542C14.1461 11.9475 13.8024 12.4891 13.3743 12.9691L12.124 11.7191ZM13.1316 8.71394C13.0681 7.78592 12.6986 6.942 12.1232 6.28207L13.3019 5.10332C13.764 5.60241 14.1321 6.17132 14.3971 6.79778C14.6555 7.40846 14.8054 8.05146 14.8455 8.71394H13.1316ZM11.8075 1.05054L11.0131 2.97105C10.4671 2.79133 9.889 2.68287 9.28915 2.65654V0.577783C10.1549 0.6064 10.9988 0.764653 11.8075 1.05054ZM8.71684 2.65654C8.00251 2.68773 7.31861 2.83569 6.68355 3.08151L5.8903 1.16587C6.79204 0.80701 7.7407 0.609834 8.71684 0.577497V2.65654ZM1.09948 6.0683L2.95617 6.83925L3.17566 6.31068L1.31668 5.53859C1.69729 4.69409 2.2104 3.92514 2.84542 3.24691L4.29832 4.69981C3.3073 5.76466 2.67371 7.16607 2.58758 8.71394H0.580645C0.610693 7.80282 0.784687 6.91568 1.09948 6.0683ZM0.580645 9.28631H2.58099C2.60188 9.93306 2.71778 10.5555 2.9161 11.1401L1.08631 11.8962C0.779824 11.0597 0.610406 10.1849 0.580645 9.28631ZM3.12415 11.6736C3.40088 12.2989 3.77405 12.8717 4.22534 13.3732L2.84513 14.7533C2.20152 14.0657 1.68327 13.2847 1.30123 12.4268L3.12415 11.6736ZM5.8903 16.8344L6.6295 15.0493C7.27966 15.308 7.98219 15.4631 8.71684 15.4954V17.4228C7.7407 17.3904 6.79204 17.1932 5.8903 16.8344ZM9.28915 15.4954C9.95595 15.4662 10.5964 15.3354 11.1954 15.1182L11.8304 16.9417C11.0148 17.2325 10.1631 17.3939 9.28915 17.4228V15.4954ZM16.8716 12.0241L15.0622 11.2735L14.8429 11.8021L16.6481 12.5507C16.2718 13.3606 15.7724 14.0998 15.1597 14.7545L13.7795 13.3743C14.7614 12.2843 15.3749 10.8562 15.4255 9.28599H17.426C17.3947 10.2301 17.2085 11.1491 16.8716 12.0241Z" fill="black"/>
</svg>
