<svg width="56" height="56" viewBox="0 0 56 56" fill="none" xmlns="http://www.w3.org/2000/svg">
<g clip-path="url(#clip0_4197_79238)">
<path d="M11.8887 29.3882L18.7367 24.1722L11.8887 18.9882L21.8407 12.4922L28.3367 18.0602L34.9927 12.4922L44.6567 18.6682L38.3207 23.9482L44.6567 29.3882L34.8327 35.3082L28.3367 30.3162L21.8407 35.3082L11.8887 29.3882ZM18.7047 37.4202V35.5962L21.7127 37.3562L28.2087 32.3962L28.2407 32.4282V43.7882L18.7047 37.4202ZM18.8647 24.1082L28.2727 30.0282L37.7447 23.7562L28.3367 18.3482L18.8647 24.1082ZM28.2407 43.7882L28.2727 32.4282L28.3367 32.3962L34.8007 37.3562L38.0007 35.4362V37.4522L28.2407 43.7882Z" fill="black"/>
</g>
<defs>
<clipPath id="clip0_4197_79238">
<rect width="32" height="32" fill="white" transform="translate(12.2715 12.3008)"/>
</clipPath>
</defs>
</svg>
